<svg version="1.1" id="Layer_1" xmlns="http://www.w3.org/2000/svg" xmlns:xlink="http://www.w3.org/1999/xlink" x="0px" y="0px"
	 width="100%" viewBox="0 0 976 976" enable-background="new 0 0 976 976" xml:space="preserve">
<path fill="#000000" opacity="1.000000" stroke="none" 
	d="
M163.845032,545.829956 
	C161.580505,525.714722 159.395370,506.045929 157.158997,486.382965 
	C155.392456,470.850830 153.488754,455.333893 151.801559,439.793304 
	C151.210892,434.352570 153.315796,429.740356 156.997681,425.719635 
	C168.699585,412.940948 180.288101,400.058197 192.028702,387.315430 
	C194.560959,384.567017 195.545364,381.980072 195.118668,377.981476 
	C193.318832,361.114624 192.377853,344.156555 190.600784,327.286804 
	C188.537949,307.704071 192.327744,288.489166 193.522659,269.113373 
	C194.116425,259.485504 195.028534,249.877502 195.650330,240.251068 
	C195.911789,236.202881 196.656143,232.350571 198.521469,228.726151 
	C210.947067,204.582718 223.357391,180.431412 235.777313,156.285065 
	C237.164093,153.588943 239.005127,151.258835 241.303818,149.259811 
	C255.886795,136.577942 270.411285,123.828552 285.030579,111.188766 
	C296.315369,101.431999 310.423309,106.096352 312.828613,120.778526 
	C315.460632,136.844376 317.170258,153.060684 319.325989,169.205521 
	C320.192688,175.696579 321.176697,182.171967 322.204224,189.329285 
	C327.546478,185.388535 332.043152,181.950104 337.312958,179.802979 
	C349.583160,174.803604 361.434357,176.163696 372.927856,182.265778 
	C389.438721,191.031677 406.885956,195.798615 425.709656,194.745636 
	C436.794159,194.125595 446.164551,191.035614 452.862488,180.862274 
	C460.323456,169.529953 471.864227,162.831741 484.472168,158.250229 
	C502.263275,151.785263 520.340149,149.809265 538.796204,155.486603 
	C548.270142,158.400925 556.513306,163.292068 562.787781,170.979507 
	C565.685608,174.529953 568.644104,175.174179 572.835876,173.908386 
	C580.307983,171.651993 587.505676,168.535461 595.323853,167.329391 
	C609.033325,165.214493 619.990906,169.902252 627.395569,181.607590 
	C630.766418,186.936218 633.993896,192.355560 637.764893,198.515289 
	C642.419495,188.624374 647.232605,179.558243 650.987976,170.073288 
	C654.394348,161.469818 659.769775,155.647522 668.277039,151.911819 
	C678.638672,147.361847 688.631836,141.967560 698.750549,136.871292 
	C706.138550,133.150330 712.916382,133.937958 719.065308,139.457214 
	C737.540894,156.041016 755.980530,172.664780 774.453308,189.251709 
	C778.428040,192.820648 780.238525,197.301743 780.267029,202.551025 
	C780.307678,210.050415 780.801514,217.593796 780.173584,225.040115 
	C779.060120,238.244171 782.247559,250.255875 787.749878,262.129242 
	C793.976929,275.566376 799.296936,289.422424 805.100403,303.058411 
	C806.256348,305.774445 806.345154,308.542816 806.345520,311.379364 
	C806.348450,335.544678 806.444946,359.710632 806.276184,383.874725 
	C806.247742,387.945740 807.431152,390.008972 811.524841,390.738342 
	C815.278625,391.407227 818.931824,392.652710 822.618958,393.681519 
	C831.379456,396.125854 835.742920,401.390778 836.191956,410.551025 
	C837.316711,433.494965 838.239624,456.448944 839.393005,479.391388 
	C840.170044,494.846405 841.027954,510.301483 842.173462,525.732483 
	C843.122498,538.516968 840.334290,550.902161 838.825867,563.428528 
	C838.150513,569.036743 837.277283,574.621643 836.451050,580.210815 
	C836.112549,582.500854 837.478821,583.934814 838.820374,585.447754 
	C847.773071,595.543823 856.542603,605.808777 865.713074,615.702515 
	C870.777527,621.166321 872.639160,627.032227 871.334045,634.377258 
	C865.137817,669.248474 859.189331,704.163879 852.952698,739.027771 
	C852.423584,741.985901 852.978027,744.199158 854.427063,746.520142 
	C863.515015,761.076355 872.349487,775.798889 881.775818,790.132324 
	C886.267090,796.961548 887.335022,803.710999 885.189514,811.431702 
	C882.739380,820.248596 880.632507,829.162903 878.505859,838.065735 
	C878.137634,839.607239 877.265076,841.199646 878.041504,843.049438 
	C880.855286,844.256531 883.880981,843.610962 886.812988,843.641602 
	C896.311462,843.740967 905.811951,843.634277 915.310913,843.702881 
	C924.721008,843.770874 931.786926,849.731628 932.302246,857.898804 
	C932.923645,867.748901 927.478088,874.304382 917.446228,875.685181 
	C915.639648,875.933899 913.795044,875.993835 911.968018,875.994080 
	C633.816772,876.028625 355.665558,876.052612 77.514336,876.046997 
	C72.697166,876.046875 67.857132,876.467285 63.060963,875.481873 
	C54.046421,873.629700 49.032040,867.077393 49.692959,857.888977 
	C50.259960,850.006287 57.088306,843.836121 65.670929,843.710571 
	C74.335297,843.583801 83.007088,843.519714 91.667175,843.748230 
	C95.489685,843.849060 97.195847,842.285034 97.575935,838.705383 
	C99.611900,819.530701 101.698792,800.361328 103.691658,781.182190 
	C104.358818,774.761536 105.911247,768.962708 110.701477,764.061279 
	C117.799355,756.798645 124.308472,748.964050 131.218689,741.512451 
	C133.207642,739.367737 133.409317,737.617310 132.271332,734.886780 
	C126.313606,720.591919 120.635803,706.180664 114.818283,691.827026 
	C113.115692,687.626282 113.046768,683.380188 114.296989,679.109924 
	C121.918549,653.077454 129.574142,627.054932 137.226639,601.031555 
	C139.254288,594.136230 144.213303,588.970520 147.953934,583.097961 
	C151.890015,576.918518 155.766983,570.632812 160.379944,564.972229 
	C165.117188,559.159058 165.640884,553.056091 163.845032,545.829956 
M683.681885,680.591370 
	C680.026611,654.751160 676.342773,628.915039 672.723267,603.069763 
	C668.250916,571.134888 663.861328,539.188354 659.381775,507.254456 
	C655.179138,477.294556 650.910217,447.343964 646.662415,417.390411 
	C642.764160,389.902344 638.820801,362.420624 634.961487,334.927094 
	C631.795837,312.374664 628.763489,289.803497 625.591492,267.251984 
	C624.341431,258.364410 623.999695,249.139297 621.247864,240.720490 
	C616.801086,227.116516 609.929077,214.444733 602.341553,202.237137 
	C600.729004,199.642670 598.909241,199.081650 596.083435,200.105286 
	C591.547119,201.748550 586.931946,203.191025 582.303101,204.559341 
	C565.273987,209.593277 550.356812,207.041031 538.787598,192.390915 
	C535.530701,188.266708 530.917664,186.420975 525.924805,185.293076 
	C519.460449,183.832733 512.993408,184.035202 506.586548,185.382156 
	C494.061005,188.015442 482.674866,192.558090 475.542023,204.225479 
	C472.450775,209.281860 467.988068,213.109741 462.999695,216.230392 
	C446.715912,226.417267 428.745514,228.533508 410.107758,226.763046 
	C391.826508,225.026428 374.552734,219.744659 358.384949,210.993622 
	C353.970795,208.604401 349.716644,208.324463 345.937653,211.915115 
	C335.860992,221.489594 329.192841,232.995041 327.309814,246.903137 
	C324.431824,268.160156 321.791840,289.449280 318.993011,310.717163 
	C316.151917,332.306458 313.193054,353.880310 310.372650,375.472290 
	C307.121460,400.361847 303.999573,425.268341 300.757660,450.159119 
	C298.010010,471.254913 295.122070,492.332489 292.387299,513.429932 
	C289.886841,532.719421 287.564087,552.031860 285.061523,571.321106 
	C282.218231,593.236206 279.237030,615.133423 276.361877,637.044434 
	C273.095459,661.937073 269.913452,686.840759 266.617096,711.729431 
	C265.876221,717.323547 266.516449,718.268921 272.379608,717.445557 
	C279.756805,716.409424 287.043274,717.243713 294.265717,718.309265 
	C318.572144,721.895325 339.577759,732.381592 357.298889,749.380249 
	C359.310822,751.310181 361.415314,751.981689 364.074280,751.539917 
	C379.527954,748.971985 394.315582,751.427551 408.280273,758.209839 
	C412.337555,760.180237 414.367554,759.831543 417.327515,756.349304 
	C438.804962,731.082336 466.180725,719.128845 499.264069,722.979675 
	C526.890991,726.195374 548.539429,740.461914 564.433105,763.153015 
	C567.293762,767.237122 569.479553,768.565125 574.390747,766.705750 
	C588.386047,761.407043 602.759827,761.442627 617.063171,765.530273 
	C620.369324,766.475098 622.051331,765.863281 623.964966,762.994507 
	C638.696777,740.908752 658.601135,725.910400 684.657776,719.668701 
	C687.930176,718.884949 689.053467,717.334656 688.546204,714.054810 
	C686.868958,703.208374 685.330017,692.340637 683.681885,680.591370 
M811.386597,781.349060 
	C803.061584,775.101868 801.442993,766.823914 807.111023,758.232666 
	C810.594604,752.952454 814.385498,747.874329 818.062927,742.722961 
	C819.333130,740.943787 820.311646,739.112488 820.697571,736.882080 
	C826.420593,703.804138 832.149780,670.727051 838.070496,637.684265 
	C838.581482,634.832336 838.005493,632.965088 836.198425,630.969055 
	C829.154053,623.188293 822.052673,615.450928 815.263977,607.450012 
	C811.330505,602.814087 806.932373,598.925110 801.759644,595.751465 
	C790.403564,588.784058 779.149353,581.650330 767.860413,574.573669 
	C761.207642,570.403259 758.217773,563.405457 759.959900,556.148621 
	C761.458923,549.904480 767.222961,544.959229 773.927795,544.323364 
	C778.441528,543.895203 782.392883,545.510376 786.135681,547.909790 
	C792.663818,552.094849 799.255005,556.181580 806.262939,560.588196 
	C809.731934,546.194458 810.305420,532.482605 809.567078,518.669006 
	C807.959290,488.589478 806.345825,458.510223 804.674500,428.434235 
	C804.545044,426.103851 805.825378,422.743347 802.649292,421.884399 
	C798.794617,420.841858 795.094299,418.027557 790.569214,421.603821 
	C779.727539,430.172119 768.496338,438.251617 757.342468,446.419342 
	C749.004211,452.525269 739.605469,451.369720 733.935913,443.731476 
	C728.330811,436.180206 730.023071,426.865479 738.306519,420.588593 
	C748.795471,412.640472 759.308411,404.720398 769.951843,396.981934 
	C773.217712,394.607452 774.695740,391.980072 774.666260,387.823090 
	C774.502258,364.663025 774.576721,341.500946 774.651245,318.339844 
	C774.661682,315.098633 774.034302,312.101288 772.789612,309.132996 
	C765.191345,291.013580 757.674988,272.859802 750.062256,254.746460 
	C748.549255,251.146439 747.819214,247.486130 747.846069,243.582352 
	C747.917236,233.251968 747.829895,222.920593 747.867371,212.589828 
	C747.876160,210.164047 747.498718,208.100876 745.512939,206.340637 
	C732.672302,194.958359 719.885498,183.514923 707.147034,172.018494 
	C705.371582,170.416168 703.788574,170.296982 701.753113,171.337494 
	C695.820923,174.369965 689.857300,177.343018 683.864075,180.252838 
	C681.760376,181.274231 680.658264,182.953094 679.716492,184.993622 
	C671.760925,202.230240 663.759216,219.445694 655.705933,236.636871 
	C654.601562,238.994431 654.229919,241.268799 654.643860,243.869965 
	C655.975220,252.236206 657.148621,260.628235 658.319763,269.019165 
	C663.394531,305.379700 668.404907,341.749207 673.521240,378.103882 
	C677.365295,405.418274 681.396851,432.706299 685.233398,460.021729 
	C690.064209,494.416229 694.738953,528.832642 699.560242,563.228577 
	C703.758057,593.176147 708.066467,623.108154 712.324768,653.047241 
	C715.225769,673.443481 718.206055,693.828979 720.945251,714.246887 
	C721.409851,717.709595 723.029114,718.910034 726.176636,719.652588 
	C758.622925,727.307739 781.023071,747.413269 795.197510,776.889893 
	C804.533997,796.305664 808.175293,816.993835 805.404785,838.571167 
	C804.960693,842.029785 805.843750,843.820862 809.860962,843.734070 
	C819.687378,843.521790 829.522461,843.592529 839.352112,843.710632 
	C842.470642,843.748047 844.226379,842.902527 844.936401,839.532166 
	C846.375183,832.701965 847.602295,825.713074 850.100403,819.246948 
	C853.773499,809.739441 852.414856,801.763428 846.186707,793.820679 
	C841.840454,788.277832 838.523438,781.927856 834.663208,775.805969 
	C826.158203,784.502686 820.992798,785.761475 811.386597,781.349060 
M260.293243,751.835510 
	C240.882843,756.594910 225.530197,767.525024 213.472549,783.167175 
	C200.595078,799.872925 194.182022,819.072876 192.482132,839.968750 
	C192.298157,842.230103 193.128220,843.508606 195.464966,843.578674 
	C197.462723,843.638611 199.462296,843.660950 201.461075,843.661011 
	C339.913635,843.665771 478.366180,843.666626 616.818726,843.667725 
	C666.468384,843.668152 716.118530,843.566162 765.766968,843.812317 
	C771.294373,843.839722 773.120850,841.705933 773.543152,836.877380 
	C775.501831,814.481140 771.134766,793.770142 757.114502,775.700623 
	C737.542053,750.475342 705.737183,742.393494 678.615845,755.833801 
	C662.393372,763.872986 651.418945,776.835693 644.121399,793.240295 
	C639.161011,804.390869 629.730347,807.311218 619.159180,801.334839 
	C603.005554,792.202515 587.391785,793.167053 572.249817,803.762634 
	C561.915100,810.994202 551.247437,808.069397 546.180054,796.448669 
	C543.025635,789.214539 539.287048,782.361145 534.065063,776.447754 
	C521.515625,762.236572 505.927246,753.797607 486.727722,754.621399 
	C462.470490,755.662170 445.296448,768.512024 433.722809,789.334534 
	C426.618256,802.116516 416.738434,804.112915 405.581207,794.695984 
	C392.473236,783.632751 377.771851,780.253845 361.284027,785.279053 
	C353.470306,787.660522 347.166931,785.918945 341.599701,779.638550 
	C320.047180,755.324951 293.558228,744.744263 260.293243,751.835510 
M253.606613,563.214294 
	C254.438873,556.455688 255.226135,549.691223 256.111725,542.939636 
	C258.942047,521.361145 261.855927,499.793488 264.648468,478.210114 
	C267.483826,456.295685 270.142181,434.358246 273.007324,412.447784 
	C276.474487,385.933472 280.124084,359.443024 283.608093,332.930878 
	C286.920654,307.723175 290.209015,282.511627 293.320892,257.278687 
	C294.314270,249.223770 296.524750,241.246231 295.439056,233.006088 
	C292.833466,213.229950 290.351593,193.435791 287.510010,173.693497 
	C286.630280,167.581207 286.488525,161.274429 284.452576,154.862793 
	C282.379272,156.513245 280.855255,157.763855 279.292725,158.964310 
	C268.998108,166.873474 260.588684,176.095901 255.325577,188.339615 
	C250.602112,199.328003 244.284317,209.619507 239.062698,220.408569 
	C233.837540,231.205002 227.052856,241.114212 226.751694,254.183273 
	C226.331146,272.432861 223.283463,290.609039 222.475616,308.865967 
	C221.547165,329.848907 226.068604,350.606995 226.580704,371.536560 
	C226.860367,382.966980 231.754852,392.316132 236.680496,401.917328 
	C240.632965,409.621613 244.770721,417.239929 248.446609,425.074524 
	C252.445206,433.596893 249.180145,442.964752 241.280518,446.847260 
	C233.298721,450.770142 224.073502,447.609924 219.630722,439.261993 
	C216.501083,433.381439 213.630463,427.363495 210.567688,421.446503 
	C209.924713,420.204376 209.690887,418.494629 207.497971,418.122711 
	C201.339478,424.904480 195.202606,431.915131 188.764786,438.637604 
	C185.858032,441.672852 184.724121,444.835785 185.267456,448.975464 
	C186.196838,456.056610 186.760361,463.184875 187.567108,470.283173 
	C190.138107,492.904510 192.815125,515.514038 195.318970,538.142700 
	C196.546494,549.236572 197.866226,560.136169 204.201324,569.921082 
	C207.225342,574.591858 210.056122,579.622192 211.503174,585.177551 
	C213.555771,593.057617 209.815125,600.746155 202.306259,604.066711 
	C195.431168,607.106934 187.284653,604.651733 182.884720,598.286377 
	C181.990646,596.992859 181.797089,595.030701 179.077682,594.562439 
	C175.303116,600.854187 169.498413,606.238708 167.239059,613.648315 
	C160.395767,636.091064 153.936554,658.650818 147.257141,681.143982 
	C146.650055,683.188354 146.795532,684.918884 147.594803,686.884155 
	C153.866272,702.305542 159.877213,717.834717 166.292953,733.195068 
	C169.862000,741.739990 168.615433,748.897034 162.207108,755.591553 
	C154.146515,764.011902 146.426407,772.757690 138.529144,781.335266 
	C136.800720,783.212463 135.566650,785.144226 135.290665,787.857361 
	C133.540985,805.057739 131.711044,822.251160 129.692825,839.421692 
	C129.324478,842.555481 130.049438,843.728577 133.204636,843.688171 
	C140.701538,843.592041 148.201065,843.597595 155.698303,843.677490 
	C159.095261,843.713745 160.603897,842.061401 160.618423,838.833130 
	C160.635696,834.995911 160.996063,831.209656 161.590164,827.408020 
	C168.327637,784.295471 189.371613,750.956360 228.203613,729.783142 
	C231.165070,728.168396 232.374786,726.090332 232.778946,722.743225 
	C234.810242,705.920471 237.148178,689.135071 239.326721,672.329834 
	C242.146408,650.578857 244.885239,628.817322 247.720398,607.068359 
	C249.588318,592.739380 251.564682,578.424500 253.606613,563.214294 
z"/>
<path fill="#000000" opacity="1.000000" stroke="none" 
	d="
M403.387146,432.829254 
	C389.424133,436.617798 380.018219,427.985199 381.286469,413.814056 
	C382.530121,399.917297 382.910614,385.943298 383.670410,372.003204 
	C384.692474,353.250732 385.598022,334.490875 386.787903,315.749023 
	C387.362854,306.693542 395.509796,299.913055 404.133545,300.790100 
	C413.183350,301.710480 419.558380,309.851654 418.887665,318.923340 
	C417.846252,333.008575 417.127808,347.118500 416.348297,361.222107 
	C415.284271,380.474335 414.386658,399.736267 413.213745,418.981598 
	C412.830872,425.263824 409.462982,429.871735 403.387146,432.829254 
z"/>
<path fill="#000000" opacity="1.000000" stroke="none" 
	d="
M550.749023,559.845825 
	C555.874939,554.412231 561.838135,553.218140 568.365906,555.329895 
	C574.713562,557.383362 577.878174,562.282776 578.885559,568.690552 
	C579.843689,574.785217 579.553528,580.965820 579.989624,587.101929 
	C581.450684,607.660583 582.442993,628.255859 583.361572,648.848389 
	C583.804932,658.789368 577.262756,665.980652 568.167542,666.260864 
	C558.765015,666.550537 552.214172,659.705200 551.601135,649.443970 
	C550.143188,625.043457 548.549255,600.650696 546.919495,576.260925 
	C546.533325,570.481934 546.713989,564.930115 550.749023,559.845825 
z"/>
<path fill="#000000" opacity="1.000000" stroke="none" 
	d="
M542.030457,492.566467 
	C540.603577,469.548706 539.272705,446.980225 537.830322,424.418854 
	C537.341309,416.768463 538.876648,410.097656 546.035828,405.985565 
	C555.360413,400.629761 566.573059,405.546082 569.335449,415.954254 
	C570.725281,421.191132 570.320312,426.541260 570.667908,431.827332 
	C572.041748,452.721130 573.300049,473.626129 574.232849,494.543427 
	C574.590881,502.572662 568.934509,509.020996 561.598877,510.244202 
	C553.322510,511.624298 545.771240,507.422272 543.325195,499.869232 
	C542.616577,497.681061 542.481079,495.307251 542.030457,492.566467 
z"/>
<path fill="#000000" opacity="1.000000" stroke="none" 
	d="
M567.341553,377.853455 
	C567.179260,388.482544 561.403259,395.034058 552.349243,395.342346 
	C542.721741,395.670166 536.300232,389.852722 535.619080,379.558075 
	C534.160645,357.514832 532.793518,335.462677 531.730530,313.397736 
	C531.338379,305.258911 537.137634,298.769135 544.745300,297.595795 
	C553.070801,296.311768 560.283447,300.457977 562.666382,308.339447 
	C563.613770,311.472870 563.869934,314.869324 564.062500,318.168091 
	C565.214233,337.901215 566.255798,357.640808 567.341553,377.853455 
z"/>
<path fill="#000000" opacity="1.000000" stroke="none" 
	d="
M409.337830,488.282349 
	C408.304962,508.345245 407.378906,527.952393 406.196045,547.544067 
	C405.649078,556.603210 398.360901,563.269592 389.757477,563.143005 
	C381.192810,563.016968 373.565582,555.457214 373.971130,546.370544 
	C374.964752,524.107727 376.312561,501.857361 377.822174,479.622620 
	C378.379120,471.419830 385.731750,465.474030 393.971100,465.702972 
	C402.674866,465.944824 409.069885,472.157623 409.440796,480.832001 
	C409.540131,483.155731 409.380463,485.490570 409.337830,488.282349 
z"/>
<path fill="#000000" opacity="1.000000" stroke="none" 
	d="
M369.634521,627.668762 
	C369.794220,622.721558 369.627991,618.244690 370.561859,613.794617 
	C372.206512,605.957886 378.760132,600.464783 386.453278,600.748352 
	C394.573151,601.047607 402.187164,607.470398 402.097778,615.355835 
	C401.951202,628.291199 401.230133,641.255249 399.961578,654.129395 
	C399.202637,661.831299 390.973602,667.523987 383.318481,666.950134 
	C375.085815,666.333008 368.693085,659.799683 368.655182,651.529968 
	C368.619446,643.726807 368.383240,635.896545 369.634521,627.668762 
z"/>
</svg>