<svg version="1.1" id="Layer_1" xmlns="http://www.w3.org/2000/svg" xmlns:xlink="http://www.w3.org/1999/xlink" x="0px" y="0px"
	 width="100%" viewBox="0 0 1024 784" enable-background="new 0 0 1024 784" xml:space="preserve">
<path fill="#000000" opacity="1.000000" stroke="none" 
	d="
M23.468658,785.000000 
	C22.391773,775.964355 27.117865,770.650269 36.063992,770.617737 
	C55.229301,770.548035 74.396454,770.469421 93.559593,770.684937 
	C98.299332,770.738342 100.015022,769.406128 99.772804,764.470764 
	C98.385223,736.198669 97.225609,707.915161 96.041649,679.633362 
	C95.212776,659.833618 94.465271,640.030457 93.688034,620.228577 
	C93.309174,610.576294 93.360245,600.884277 92.452316,591.282532 
	C91.628174,582.566956 94.915863,577.305115 102.689034,573.419922 
	C132.940964,558.299377 162.970032,542.733521 193.159576,527.486938 
	C196.579895,525.759583 198.486572,523.551758 199.493774,519.862183 
	C216.582779,457.260803 233.780457,394.689056 250.937378,332.106171 
	C252.218658,327.432465 254.999496,324.242767 259.559662,322.481293 
	C310.055939,302.975555 360.527405,283.405426 411.053925,263.978424 
	C414.817322,262.531403 417.558014,260.486237 419.849854,257.141235 
	C439.626190,228.277573 459.582123,199.537003 479.399750,170.701508 
	C482.574493,166.082077 486.544586,163.678741 492.270660,163.536072 
	C512.750305,163.025833 533.225403,162.317825 553.699219,161.598907 
	C579.662476,160.687241 605.620667,159.630936 631.585266,158.763214 
	C641.642212,158.427109 644.496033,160.748856 648.399658,170.162170 
	C675.663818,235.907867 707.549866,299.194031 749.393005,357.034821 
	C769.588623,384.951691 792.060669,410.833435 820.486389,430.898346 
	C831.437927,438.628723 843.198364,444.811523 855.903442,449.148682 
	C864.624512,452.125763 867.099792,455.600372 867.101807,465.033905 
	C867.112366,514.864319 867.361450,564.697021 866.901184,614.523132 
	C866.810181,624.370789 869.150757,630.781494 877.642273,636.776306 
	C901.725952,653.778931 924.887451,672.083313 948.562622,689.672485 
	C954.015442,693.723511 956.477051,698.510742 956.389404,705.342224 
	C956.135010,725.171143 956.440308,745.007080 956.202454,764.836426 
	C956.146179,769.527710 957.663635,770.779114 962.195679,770.713379 
	C978.524658,770.476501 994.861023,770.764709 1011.190552,770.548401 
	C1017.113708,770.469910 1021.559509,772.368103 1024.766602,777.758911 
	C1025.000000,780.332336 1025.000000,782.664612 1025.000000,784.998474 
	C691.312439,785.000000 357.624878,785.000000 23.468658,785.000000 
M930.868591,747.500000 
	C930.864441,735.835938 930.784546,724.171082 930.906311,712.508362 
	C930.939026,709.373840 929.939392,707.193176 927.382141,705.329773 
	C890.234009,678.260559 854.918640,648.669495 815.506714,624.710815 
	C800.263245,615.444214 785.600037,605.121094 767.577393,601.860474 
	C759.561340,600.410217 751.440552,599.548706 743.387146,598.292908 
	C728.317017,595.942993 715.901978,588.547729 705.319885,577.847717 
	C701.597839,574.084106 700.665588,569.399292 702.185669,564.425171 
	C703.636414,559.678162 707.253662,557.069885 712.005371,556.186157 
	C716.698425,555.313416 720.439636,557.399963 723.658752,560.590027 
	C731.104553,567.968750 739.726868,573.118713 750.379639,573.848145 
	C778.421631,575.768250 803.457764,585.681213 826.321228,601.709839 
	C831.017822,605.002502 835.701904,608.435852 841.384338,610.893860 
	C841.512207,609.645264 841.664612,608.850220 841.664917,608.055237 
	C841.680237,564.889709 841.636108,521.724060 841.759277,478.558868 
	C841.771545,474.268829 839.474426,473.560608 836.164185,473.424377 
	C829.341064,473.143646 822.520630,472.749207 815.694702,472.595886 
	C803.218689,472.315735 790.754517,471.429321 778.269531,473.047852 
	C766.168579,474.616547 755.227417,479.475128 744.211060,484.177673 
	C729.083252,490.635315 713.652405,491.633209 697.817261,487.279083 
	C690.107666,485.159180 685.770630,478.948700 687.421753,472.194031 
	C689.242981,464.743805 695.342285,461.154999 703.543457,462.794312 
	C707.456543,463.576477 711.318848,464.491425 715.341858,464.756256 
	C725.274780,465.410034 733.886169,461.264587 742.578430,457.499023 
	C754.427551,452.365753 766.639832,448.839050 779.524780,447.416962 
	C785.523499,446.754883 791.606628,447.170654 798.365784,446.296539 
	C796.976807,444.980560 796.310913,444.246399 795.544739,443.638763 
	C769.593079,423.057465 748.274231,398.155212 728.876709,371.550354 
	C690.894714,319.455902 661.181152,262.704681 635.113708,203.926102 
	C634.355713,202.216812 634.195251,200.002243 632.039978,199.073761 
	C614.138123,222.322037 598.642883,246.368515 596.111145,276.804474 
	C594.699829,293.770569 585.941223,307.617035 573.214172,318.804749 
	C568.515747,322.934937 563.445312,323.202881 558.446411,320.186432 
	C553.916321,317.452881 551.770813,312.370697 552.794128,306.805664 
	C553.466553,303.148499 555.817688,300.568176 558.392944,298.153442 
	C566.276794,290.760956 570.335083,281.554840 571.782837,270.944519 
	C572.703125,264.199677 573.936646,257.482971 575.358826,250.823944 
	C579.635437,230.798599 590.362122,213.953979 601.934814,197.541580 
	C604.650391,193.690369 607.224426,189.739319 610.335754,185.135483 
	C606.774780,185.135483 604.295837,185.067215 601.821594,185.145828 
	C569.520691,186.171967 537.223511,187.343430 504.916870,188.131180 
	C499.863220,188.254379 496.768707,189.768051 493.913055,193.961273 
	C475.249725,221.366608 456.261505,248.550552 437.547882,275.921997 
	C434.490845,280.393372 430.799347,283.374939 425.735901,285.319855 
	C380.961700,302.517975 336.246613,319.870209 291.526398,337.208771 
	C289.920685,337.831329 287.875397,337.890594 286.570312,341.165771 
	C287.671265,341.964935 289.335297,342.854706 290.597107,344.139496 
	C300.054565,353.769196 309.519745,363.394196 318.814056,373.180664 
	C331.164825,386.185425 339.391968,401.386902 342.300598,419.211731 
	C343.983643,429.525879 349.215546,437.437592 357.719879,443.327179 
	C359.636841,444.654724 361.526917,446.021088 363.434570,447.362152 
	C369.637787,451.723083 371.342712,458.926239 367.571320,464.855072 
	C363.820923,470.750885 356.332855,472.407288 349.992981,468.503418 
	C333.092621,458.096680 320.972382,444.220978 317.662292,423.888580 
	C315.593689,411.181976 309.796570,400.223633 300.947754,390.958527 
	C291.740814,381.318451 282.329346,371.873291 272.967133,362.382568 
	C272.096344,361.499847 271.491302,360.078186 269.611237,360.225372 
	C268.885529,362.531281 268.066406,364.867462 267.413055,367.249115 
	C253.589554,417.640533 239.785995,468.037415 225.975372,518.432373 
	C222.499725,531.115051 223.768509,533.424316 236.587433,537.390686 
	C238.487625,537.978638 240.460953,538.380737 242.428391,538.692627 
	C253.102249,540.384521 263.927063,541.115417 274.417145,543.973755 
	C290.714569,548.414673 305.152100,556.582764 319.138306,565.780090 
	C331.248962,573.744080 343.602478,581.338318 355.729279,589.278320 
	C361.422882,593.006226 363.098541,599.817566 360.204773,605.567505 
	C357.533051,610.876221 351.065643,613.667603 345.361115,611.741882 
	C343.340240,611.059692 341.437958,609.914673 339.618774,608.764038 
	C324.974152,599.501770 310.375793,590.166382 295.736603,580.895447 
	C281.560822,571.917969 266.180054,566.617676 249.388763,565.135620 
	C234.779617,563.846130 220.751968,560.423279 209.008102,550.896057 
	C206.425125,548.800659 204.415985,550.090210 202.184097,551.227722 
	C175.764801,564.693054 149.370987,578.209106 122.884598,591.541199 
	C119.226685,593.382385 117.900490,595.630005 118.103325,599.728821 
	C119.247215,622.844360 120.135765,645.972412 121.122414,669.095764 
	C122.471092,700.703491 123.835365,732.310486 125.179489,763.918396 
	C125.462387,770.571045 125.435471,770.591309 132.386032,770.594666 
	C166.885147,770.611267 201.384262,770.624817 235.883377,770.624512 
	C279.715576,770.624146 323.547791,770.624268 367.379974,770.584778 
	C373.931641,770.578857 373.954163,770.479004 373.819824,763.934692 
	C373.491669,747.945190 373.146393,731.955933 372.795807,715.966858 
	C372.660126,709.778320 375.054962,705.198608 380.547577,701.936890 
	C393.488983,694.251770 405.327332,685.036011 416.207916,674.655762 
	C432.185150,659.413208 446.050659,642.481140 452.226410,620.886230 
	C455.314697,610.087280 461.444885,602.728210 470.587128,597.123535 
	C485.269073,588.122864 501.513763,583.189026 518.043152,579.145874 
	C522.265747,578.112976 524.530457,576.177368 526.108459,572.169434 
	C534.771362,550.166931 543.688110,528.264282 552.533142,506.333649 
	C555.471924,499.047058 560.233398,495.357239 566.018921,495.808228 
	C572.464294,496.310669 576.506226,500.445221 578.196106,508.365570 
	C583.609253,533.737549 588.904419,559.135437 594.486755,584.469971 
	C595.567688,589.375732 595.721619,594.562561 599.476379,598.829956 
	C612.243652,613.340210 624.688171,628.134155 637.299377,642.782349 
	C639.848816,645.743591 641.641724,648.947693 642.506287,652.835632 
	C650.772034,690.007812 659.212280,727.141357 667.384521,764.333862 
	C668.414307,769.020386 670.096924,770.758118 675.218933,770.746826 
	C758.049744,770.564575 840.881042,770.621521 923.712280,770.623840 
	C924.712219,770.623840 925.716553,770.555115 926.711365,770.624695 
	C929.696777,770.833191 930.910461,769.494751 930.859131,766.498779 
	C930.756226,760.500977 930.853088,754.499817 930.868591,747.500000 
M457.480347,665.927307 
	C442.389282,686.861511 423.504333,703.801208 402.183716,718.111450 
	C399.347656,720.015015 398.136841,722.009888 398.254364,725.412231 
	C398.725677,739.058228 399.064087,752.710571 399.248260,766.363342 
	C399.293335,769.705383 400.623840,770.684082 403.744690,770.639160 
	C411.905548,770.521484 420.069427,770.618835 428.232086,770.619446 
	C497.531647,770.624329 566.831177,770.628418 636.130737,770.627441 
	C643.058105,770.627319 643.167908,770.586609 641.634338,763.723694 
	C634.127075,730.126892 626.529968,696.550049 619.057495,662.945557 
	C618.449158,660.210022 617.172668,658.064209 615.406677,656.006470 
	C603.148926,641.723389 591.010681,627.336914 578.659851,613.135132 
	C574.917908,608.832397 572.792297,604.057922 571.667297,598.517578 
	C568.563782,583.232056 565.173706,568.004639 561.596741,551.357117 
	C557.043701,562.660339 552.203003,572.416138 549.199219,582.708130 
	C545.457275,595.528992 537.801453,601.570923 524.665649,603.621887 
	C511.214935,605.721924 498.248199,610.482910 486.230225,617.220886 
	C482.490204,619.317688 478.644287,621.424438 477.264618,626.096252 
	C473.074280,640.285156 466.380981,653.258423 457.480347,665.927307 
z"/>
<path fill="#000000" opacity="1.000000" stroke="none" 
	d="
M1.000000,164.454102 
	C4.781513,158.350555 10.005419,156.273163 16.809130,156.573273 
	C26.116655,156.983765 35.456158,156.625168 44.781197,156.696152 
	C52.719761,156.756577 57.895164,161.339462 58.278950,168.468079 
	C58.654995,175.452927 53.906395,181.096573 46.155281,181.621140 
	C34.866596,182.385117 23.533161,182.269241 12.221007,181.619019 
	C7.240168,181.332733 3.956582,178.511490 1.233068,174.241730 
	C1.000000,170.969406 1.000000,167.938812 1.000000,164.454102 
z"/>
<path fill="#000000" opacity="1.000000" stroke="none" 
	d="
M173.545898,1.000000 
	C180.551010,4.838370 182.180527,10.902794 182.027283,17.997400 
	C181.833313,26.977558 182.233017,35.975590 181.874207,44.945812 
	C181.458420,55.340969 171.937073,61.349075 163.531387,56.826988 
	C159.241226,54.518967 156.789795,50.841484 156.736847,45.955807 
	C156.617828,34.976223 156.682449,23.994436 156.705246,13.013616 
	C156.715988,7.838516 159.638565,4.366297 163.795547,1.266517 
	C167.030594,1.000000 170.061188,1.000000 173.545898,1.000000 
z"/>
<path fill="#000000" opacity="1.000000" stroke="none" 
	d="
M257.434235,166.425095 
	C259.750488,209.764450 226.788864,249.655121 183.513733,256.355957 
	C133.307465,264.130035 88.079041,230.279617 81.560570,180.050858 
	C75.311058,131.894638 109.398338,87.796082 157.668137,81.590820 
	C206.665146,75.292091 250.839447,109.447273 257.083313,158.501755 
	C257.397491,160.969971 257.309387,163.489365 257.434235,166.425095 
M227.354218,144.178009 
	C214.216751,115.503990 184.473602,100.423225 154.577927,107.640060 
	C124.199524,114.973427 104.984093,142.655746 106.075508,172.033310 
	C107.483398,209.929153 144.303055,239.159225 181.545746,231.191574 
	C220.998245,222.751160 242.414474,182.640869 227.354218,144.178009 
z"/>
<path fill="#000000" opacity="1.000000" stroke="none" 
	d="
M156.679214,294.214172 
	C157.074417,285.562836 161.804916,280.176514 168.804886,279.938293 
	C175.829437,279.699219 181.452774,284.810547 181.779755,292.906189 
	C182.215668,303.698517 182.199570,314.535828 181.753525,325.328003 
	C181.435471,333.023102 175.742111,338.069916 168.894287,337.883759 
	C161.878387,337.693024 156.768982,332.029480 156.700623,324.129456 
	C156.615707,314.315186 156.678925,304.499634 156.679214,294.214172 
z"/>
<path fill="#000000" opacity="1.000000" stroke="none" 
	d="
M52.171783,268.207184 
	C58.899521,261.491821 65.325096,254.977661 71.866005,248.581436 
	C78.112518,242.473114 85.574966,242.150482 90.877632,247.599548 
	C96.012695,252.876373 95.446144,260.530792 89.415985,266.604889 
	C82.852638,273.216003 76.255173,279.793304 69.663429,286.376190 
	C62.704617,293.325714 55.778908,294.086914 49.995571,288.595886 
	C45.578262,284.401794 43.744579,275.266754 52.171783,268.207184 
z"/>
<path fill="#000000" opacity="1.000000" stroke="none" 
	d="
M78.939278,61.060791 
	C82.948296,65.078979 86.793388,68.765800 90.447014,72.633514 
	C95.658264,78.150124 95.670296,86.076241 90.635773,91.014320 
	C85.891846,95.667381 77.948959,95.582092 72.644081,90.448570 
	C64.995766,83.047318 57.477600,75.504814 50.090176,67.842987 
	C44.830696,62.388153 44.837078,54.893902 49.738983,49.922115 
	C54.766834,44.822575 62.409374,44.895916 68.081894,50.249027 
	C71.709480,53.672356 75.159966,57.283352 78.939278,61.060791 
z"/>
<path fill="#000000" opacity="1.000000" stroke="none" 
	d="
M330.661926,157.796783 
	C336.766846,161.884155 338.921143,166.374466 337.640381,171.729828 
	C336.221985,177.660507 332.009277,181.380081 324.948273,181.617508 
	C314.328308,181.974609 303.674957,182.030945 293.059753,181.610092 
	C285.076324,181.293579 279.814636,175.535370 280.138092,168.657501 
	C280.471985,161.557053 285.992798,156.743256 294.028473,156.697586 
	C304.166168,156.639969 314.304474,156.684952 324.442505,156.679626 
	C326.445740,156.678574 328.437592,156.720078 330.661926,157.796783 
z"/>
<path fill="#000000" opacity="1.000000" stroke="none" 
	d="
M274.029602,82.029770 
	C270.834808,85.206657 268.004486,88.261024 264.918732,91.030846 
	C259.903931,95.532204 252.836578,95.492096 248.188980,91.152061 
	C243.132919,86.430595 242.316467,78.775902 247.071732,73.704453 
	C254.903961,65.351448 263.032471,57.257206 271.349121,49.384609 
	C276.364075,44.637409 284.287445,45.291409 288.874847,50.178020 
	C293.438354,55.039104 293.469757,62.184803 288.667847,67.279083 
	C283.998810,72.232407 279.085449,76.955383 274.029602,82.029770 
z"/>
<path fill="#000000" opacity="1.000000" stroke="none" 
	d="
M257.142456,274.857849 
	C253.844986,271.543243 250.683884,268.581818 247.780090,265.386536 
	C242.642548,259.733276 242.706680,252.441879 247.751160,247.506760 
	C252.778976,242.587952 259.741333,242.318634 265.227600,247.504120 
	C273.318207,255.151245 281.188354,263.047607 288.861938,271.114105 
	C293.682037,276.181000 293.357941,283.427704 288.707275,288.229584 
	C283.805359,293.290863 276.697266,293.663940 271.256805,288.742157 
	C266.454376,284.397552 262.001801,279.666199 257.142456,274.857849 
z"/>
</svg>