<svg version="1.1" id="Layer_1" xmlns="http://www.w3.org/2000/svg" xmlns:xlink="http://www.w3.org/1999/xlink" x="0px" y="0px"
	 width="100%" viewBox="0 0 224 225" enable-background="new 0 0 224 225" xml:space="preserve">
<path fill="#050505" opacity="1.000000" stroke="none" 
	d="
M225.000000,101.000000 
	C225.000000,109.354233 225.000000,117.708466 224.627686,126.685654 
	C221.159332,155.101883 209.810211,178.795761 188.957550,198.206558 
	C181.808807,190.030380 173.202209,184.455444 162.165787,183.374954 
	C158.523697,183.018402 154.740540,183.068253 151.282257,182.048889 
	C136.782333,177.774872 120.135704,179.053543 109.017586,165.768692 
	C107.528290,163.989151 104.919487,162.844666 102.605568,162.113419 
	C95.519104,159.873962 88.402679,157.613983 81.150017,156.046021 
	C72.782196,154.236984 64.256828,153.156662 56.111469,151.811356 
	C56.835445,153.478745 57.740631,154.802994 57.976315,156.237274 
	C59.023506,162.610107 61.016247,164.544205 67.362221,164.937881 
	C73.733315,165.333099 80.104210,165.731659 86.475189,166.128769 
	C85.232727,167.216125 83.664223,167.320557 82.576439,168.097794 
	C80.383377,169.664688 78.451805,171.597595 76.412369,173.379517 
	C78.524857,174.689041 80.494873,176.700699 82.779030,177.164185 
	C87.777672,178.178436 92.935707,178.407104 98.697212,179.028778 
	C95.295181,182.500366 96.967216,184.283722 100.076698,185.406555 
	C102.865257,186.413513 105.680748,187.695969 108.573738,187.996506 
	C116.511467,188.821121 124.489502,189.346237 132.464478,189.695847 
	C138.794754,189.973358 143.332397,192.899338 145.771362,198.518433 
	C147.840622,203.285706 151.329895,205.705841 156.098145,206.916916 
	C161.821732,208.370636 167.516861,209.936447 174.066940,211.677734 
	C164.933243,212.730133 156.789383,213.668488 148.645523,214.606842 
	C148.684036,215.058670 148.722549,215.510513 148.761078,215.962357 
	C163.159897,216.694473 177.558701,217.426590 191.957520,218.158691 
	C191.974930,219.019608 191.992355,219.880508 192.009766,220.741409 
	C187.006027,221.167511 182.002304,221.593597 176.987015,221.665680 
	C176.618073,220.686172 176.260696,220.060669 175.903320,219.435181 
	C175.318481,220.415970 174.733643,221.396744 173.768509,222.545258 
	C161.388535,223.468094 149.386948,224.194946 137.391251,225.008667 
	C135.580078,225.131546 133.796402,225.659439 132.000000,226.000000 
	C131.555557,226.000000 131.111099,226.000000 130.190094,225.643982 
	C127.809013,225.525314 125.904503,225.762650 124.000000,226.000000 
	C117.645599,226.000000 111.291206,226.000000 104.292465,225.701691 
	C102.743912,225.336624 101.839691,225.269867 100.593788,225.145096 
	C99.501404,225.391388 98.750702,225.695694 98.000000,226.000000 
	C96.285645,226.000000 94.571281,226.000000 92.267822,225.603546 
	C74.076096,223.427811 56.240002,223.834961 38.787712,220.647720 
	C38.788826,220.008682 38.789940,219.369659 38.791054,218.730637 
	C58.699432,217.001999 78.607811,215.273361 98.516190,213.544708 
	C98.497726,212.982956 98.479256,212.421188 98.460793,211.859421 
	C96.025795,211.651428 93.592911,211.296432 91.155426,211.261414 
	C81.675941,211.125229 72.185501,211.312363 62.719341,210.907272 
	C59.021015,210.748993 54.668201,210.352402 51.817596,208.350098 
	C26.779985,190.763428 10.324528,167.254105 4.416836,136.958740 
	C7.170207,134.275360 9.585715,131.638290 12.283700,128.963913 
	C12.888185,128.622208 13.210193,128.317810 13.532200,128.013412 
	C13.324339,127.834053 13.116480,127.654694 12.908620,127.475334 
	C12.605351,127.983147 12.302084,128.490967 11.654904,129.032562 
	C8.806449,131.073715 6.301905,133.081085 3.580111,134.770660 
	C2.575242,131.301926 1.787621,128.150955 1.000000,125.000000 
	C1.000000,116.312439 1.000000,107.624870 1.369350,98.315491 
	C2.115983,95.737976 2.469604,93.777382 2.874023,91.827316 
	C11.752637,49.015812 37.164917,20.629459 78.115692,5.996932 
	C84.225540,3.813762 90.696236,2.640477 97.000000,1.000000 
	C106.020897,1.000000 115.041786,1.000000 124.683380,1.379807 
	C129.546112,2.493845 133.883682,2.880363 138.015472,4.015730 
	C182.678207,16.288538 212.040085,43.743382 222.599503,89.708244 
	C223.460922,93.458084 224.202652,97.235435 225.000000,101.000000 
M33.723022,164.101349 
	C33.817257,164.069016 33.911495,164.036667 34.439087,163.783737 
	C34.709782,163.585266 34.899109,163.327118 35.693054,162.932220 
	C37.128857,161.288361 38.564659,159.644485 40.649151,157.929794 
	C41.349663,157.287155 42.050179,156.644516 42.750690,156.001862 
	C42.331627,155.700592 41.912563,155.399338 41.493496,155.098068 
	C40.995510,156.065170 40.497524,157.032288 39.311367,158.066193 
	C37.871052,159.708374 36.430733,161.350555 34.555893,163.212616 
	C34.285019,163.412735 34.098206,163.673172 33.723022,164.101349 
M47.721581,178.100601 
	C47.816479,178.068634 47.911373,178.036682 48.440403,177.784286 
	C48.711174,177.584671 48.899101,177.325073 49.687729,176.930206 
	C51.120159,175.697876 52.552589,174.465561 53.985020,173.233231 
	C53.482132,172.793579 52.979244,172.353912 52.476357,171.914261 
	C51.315689,173.608078 50.155022,175.301910 48.557091,177.211884 
	C48.284683,177.411148 48.097340,177.671616 47.721581,178.100601 
M71.896484,80.715912 
	C71.810608,80.670708 71.724724,80.625504 71.638840,80.580299 
	C71.751175,80.726433 71.863510,80.872559 72.095856,81.288803 
	C72.184883,81.334457 72.273918,81.380112 72.362946,81.425774 
	C72.247925,81.276077 72.132912,81.126373 71.896484,80.715912 
M111.554382,199.207642 
	C111.283974,199.409027 111.096901,199.670151 110.488434,200.027878 
	C110.228806,200.335312 109.969177,200.642746 109.709541,200.950180 
	C109.986092,201.080536 110.262650,201.210892 110.539207,201.341232 
	C110.695709,200.896362 110.852211,200.451477 111.443909,199.786819 
	C111.715996,199.588257 111.905830,199.329376 112.444176,198.786957 
	C112.712891,198.587479 112.901428,198.329422 113.702271,197.931442 
	C115.708221,196.865219 118.079170,195.968964 116.386452,192.506256 
	C116.948341,192.152786 117.510239,191.799332 118.519135,191.164688 
	C112.893486,191.164688 107.985420,191.164688 103.077362,191.164688 
	C103.058228,191.530487 103.039093,191.896286 103.019951,192.262070 
	C107.347015,192.507523 111.674072,192.752960 115.706680,193.589691 
	C114.800102,195.056488 113.893524,196.523285 112.554611,198.211060 
	C112.284912,198.410126 112.096512,198.668472 111.554382,199.207642 
M94.266724,73.024864 
	C94.631134,72.453377 94.995544,71.881889 95.938568,70.948067 
	C96.411484,70.381287 96.884407,69.814499 97.357323,69.247711 
	C97.688438,69.385536 98.019554,69.523361 98.350670,69.661194 
	C97.646591,72.435959 96.942513,75.210732 96.521896,76.868401 
	C100.795494,77.756889 104.820793,78.593758 108.846085,79.430618 
	C108.464462,80.176224 108.082848,80.921829 107.743881,81.584114 
	C115.855637,83.484230 118.763046,87.824036 117.383293,97.772118 
	C115.617622,94.506737 114.260307,91.996544 112.932693,89.117798 
	C112.772285,88.932350 112.611885,88.746895 112.451477,88.561447 
	C112.419182,88.904823 112.386879,89.248192 112.874397,90.230782 
	C112.738716,91.448975 112.603043,92.667160 112.407501,94.422920 
	C109.837891,92.753746 107.736366,91.388626 105.328644,89.824608 
	C105.562614,90.932320 105.727669,91.713776 105.899132,92.525581 
	C103.968727,92.424339 102.253067,92.334358 100.234306,91.923424 
	C100.044945,91.941513 99.855576,91.959610 99.666214,91.977699 
	C99.902451,92.134300 100.138687,92.290894 100.220078,93.076630 
	C99.477676,93.419807 98.735283,93.762978 97.798752,93.563156 
	C97.537460,93.811302 97.276169,94.059441 97.014870,94.307579 
	C97.367989,94.494690 97.721107,94.681801 98.227493,95.146759 
	C98.227493,95.146759 98.193184,95.462219 98.057816,96.226883 
	C97.377724,97.897064 96.697624,99.567238 96.017525,101.237419 
	C96.485313,101.628044 96.953094,102.018669 97.420883,102.409286 
	C99.281601,100.657944 101.142319,98.906593 103.719460,97.214622 
	C104.111412,97.913177 104.453423,98.645767 104.902924,99.305092 
	C110.229713,107.118248 110.024940,111.471291 103.912163,118.873123 
	C103.289101,119.627571 102.515549,120.257736 101.196602,120.917717 
	C100.991615,120.906540 100.786636,120.895370 100.579178,120.032639 
	C101.124458,116.584267 101.669739,113.135895 102.287773,109.227455 
	C100.452141,110.630196 99.211685,111.578125 96.992989,113.273605 
	C97.708580,110.485313 98.043007,109.182243 98.313469,108.128372 
	C96.650635,107.722054 95.337814,107.401260 94.025726,106.524673 
	C93.716255,105.919769 93.406784,105.314865 92.461334,104.985619 
	C91.950974,103.378464 91.440605,101.771317 91.122063,99.648026 
	C91.100456,99.241226 91.078850,98.834427 91.057236,98.427628 
	C90.726875,99.008385 90.396515,99.589142 89.954407,100.875671 
	C89.282883,101.680748 88.611366,102.485817 87.635445,103.655815 
	C85.212601,98.881729 83.058884,94.637947 80.905167,90.394165 
	C79.160316,107.550293 67.841057,122.236717 70.318062,139.601410 
	C119.771622,139.601410 169.153610,139.601410 218.752792,139.601410 
	C221.931488,124.092941 222.032913,108.830467 219.476349,93.679283 
	C217.589813,82.498878 219.381287,84.023262 207.774933,83.997375 
	C205.278412,83.991814 202.776459,84.034325 200.288269,83.876678 
	C199.305313,83.814407 198.353149,83.266075 197.386948,82.939056 
	C197.441269,82.479904 197.495575,82.020744 197.549881,81.561584 
	C203.396423,81.561584 209.242966,81.561584 215.089508,81.561584 
	C215.078552,81.091179 215.067596,80.620781 215.056625,80.150375 
	C209.595917,79.637039 204.135208,79.123703 198.674500,78.610367 
	C198.683990,78.356773 198.693466,78.103172 198.702957,77.849579 
	C203.935654,77.849579 209.168350,77.849579 215.517639,77.849579 
	C213.186218,73.883102 211.598785,70.635551 209.503403,67.757866 
	C206.963837,64.270180 203.718170,64.172386 200.636703,67.192513 
	C199.478119,68.328018 198.596741,69.746361 197.600143,71.021492 
	C190.639465,66.674355 188.650085,67.201439 182.358414,74.966980 
	C178.956284,72.426414 175.381760,71.555473 172.090881,74.910873 
	C170.380325,76.654976 169.215912,78.934677 167.369370,80.597984 
	C167.190186,80.260872 167.010986,79.923767 166.861572,78.898674 
	C168.206741,76.672852 169.551910,74.447029 170.956894,72.122238 
	C167.176498,68.187683 162.509094,68.725029 157.515427,70.154274 
	C156.547226,65.181755 153.023254,64.236549 148.944199,64.159416 
	C143.648804,64.059280 138.353424,63.957485 133.054062,63.326607 
	C133.068954,62.975830 133.083847,62.625053 134.019684,62.203407 
	C139.580383,62.203407 145.141098,62.203407 150.701797,62.203407 
	C150.758896,61.526974 150.816010,60.850536 150.873108,60.174103 
	C145.106415,59.610252 139.339722,59.046406 133.573013,58.482555 
	C133.550430,58.166847 133.527863,57.851135 133.505280,57.535427 
	C138.924332,57.535427 144.343399,57.535427 149.838989,57.535427 
	C149.042419,48.287323 144.332703,43.509991 136.189453,42.958668 
	C128.927185,42.466991 121.658142,42.075375 114.392090,41.639603 
	C114.391327,41.229855 114.390556,40.820110 114.389793,40.410362 
	C122.881920,40.410362 131.374054,40.410362 139.669266,40.410362 
	C138.515121,26.043097 126.793449,26.185896 117.973465,22.724707 
	C115.634605,21.806873 112.865295,21.977003 110.289551,21.683470 
	C109.981712,21.648386 109.579819,21.751844 109.336952,21.940042 
	C107.010605,23.742796 104.709091,25.577604 102.381660,27.418085 
	C92.912422,18.858372 88.446579,19.848200 79.728935,31.634232 
	C74.369118,31.634232 69.844818,31.634232 66.717674,31.634232 
	C64.468262,28.968973 62.741970,26.923550 61.326481,24.318449 
	C62.192852,23.196537 63.059219,22.074625 63.925591,20.952713 
	C63.377464,20.628988 62.829338,20.305264 62.281216,19.981539 
	C61.517670,21.583485 60.754128,23.185431 59.264702,24.959240 
	C49.730988,27.838722 46.423382,35.184471 45.577332,44.241882 
	C35.807587,41.591595 31.374050,43.879719 28.604675,54.131943 
	C38.219711,54.131943 47.502769,54.131943 56.785824,54.131943 
	C56.753914,54.745155 56.722008,55.358364 56.690098,55.971577 
	C46.367386,55.971577 36.043098,56.069778 25.723040,55.904282 
	C23.058084,55.861549 21.337263,56.466942 20.243761,59.004681 
	C16.382082,67.966644 11.700801,76.649475 8.679687,85.879807 
	C5.336813,96.093185 4.438423,106.874687 5.227357,118.150551 
	C11.557119,115.467995 16.356876,117.337082 20.888218,121.114250 
	C22.163183,122.177025 24.313438,123.182373 25.771425,122.867516 
	C33.645264,121.167137 40.296612,122.577400 44.351921,128.336716 
	C54.505970,128.083969 57.494495,136.639893 62.113712,140.408203 
	C67.079521,124.939659 72.004372,109.598671 77.332855,93.000397 
	C74.564018,95.490288 72.901276,97.096756 71.090927,98.514778 
	C70.749855,98.781929 69.820663,98.298248 69.658882,97.990807 
	C69.652611,97.753746 69.646332,97.516685 69.640060,97.279633 
	C69.309395,97.403664 68.978722,97.527702 68.028877,97.920189 
	C67.216225,97.981514 66.403572,98.042839 65.590919,98.104172 
	C65.581543,97.847084 65.572174,97.590004 65.562798,97.332924 
	C62.126060,99.380798 58.689320,101.428673 55.259136,103.472633 
	C55.515377,102.140266 55.776638,100.781799 55.918587,100.043716 
	C54.366302,100.861618 52.548203,102.676285 51.128178,102.405266 
	C47.060436,101.628891 44.170437,103.443130 41.185036,105.504997 
	C38.987385,107.022797 36.773987,108.517807 34.567608,110.022972 
	C34.093418,109.565155 33.619232,109.107338 33.145046,108.649521 
	C36.547329,104.347351 39.984108,100.071777 43.333027,95.728462 
	C44.491539,94.225937 45.431755,92.555099 46.847740,90.384735 
	C42.492271,92.008484 39.347816,93.180756 36.099869,94.391617 
	C35.943722,93.659508 35.780922,92.896202 35.588142,91.992325 
	C34.579800,92.674072 33.906250,93.129456 33.128933,93.005188 
	C32.707378,92.457802 32.285824,91.910408 31.864265,91.363022 
	C31.607946,91.848961 31.351627,92.334908 30.161098,93.041405 
	C28.561287,94.012428 26.961475,94.983452 24.908161,95.184311 
	C24.719095,94.954063 24.530027,94.723824 24.641512,93.878304 
	C31.443903,84.204941 39.795872,77.234802 52.463573,77.261620 
	C58.178024,77.273727 58.178497,77.049446 63.180492,73.359932 
	C61.893143,72.979851 60.425312,72.546486 58.994625,71.423767 
	C59.016354,70.964035 59.038082,70.504303 59.311714,69.902763 
	C59.194302,69.917282 59.076889,69.931801 58.361389,70.041527 
	C57.906227,70.621124 57.451065,71.200714 56.190807,71.917862 
	C54.907856,71.994507 53.624908,72.071152 52.206818,72.155869 
	C52.816910,71.042046 53.302376,70.155762 53.458168,69.871338 
	C49.867012,69.871338 46.434048,69.871338 42.948376,69.260063 
	C42.918972,69.057678 42.889565,68.855286 42.858002,67.966095 
	C41.801346,68.060226 40.713207,68.025146 39.694103,68.273415 
	C36.952316,68.941353 34.240005,69.730270 31.515993,70.471161 
	C31.253635,69.930428 30.991280,69.389702 30.728924,68.848976 
	C33.998283,66.511139 36.976887,63.463970 40.596382,61.980305 
	C48.603363,58.698162 57.044106,59.614929 65.372658,61.055473 
	C66.555481,61.260059 67.706566,61.648117 69.591301,61.970592 
	C70.956329,61.343105 72.321358,60.715622 74.060745,59.916046 
	C72.320389,57.924240 71.070396,56.493641 69.049942,55.150799 
	C66.724258,54.588398 64.398575,54.026001 61.055679,53.217617 
	C62.860119,52.155815 63.583958,51.729881 64.962875,50.918472 
	C59.659912,49.517838 54.935669,48.270058 50.211430,47.022278 
	C50.204403,46.411030 50.197380,45.799786 50.190357,45.188538 
	C54.275837,44.894833 58.478348,43.866924 62.416927,44.494755 
	C67.252800,45.265617 72.136902,46.891586 76.507835,49.115509 
	C81.479935,51.645302 85.933815,55.207661 90.516472,58.457245 
	C90.821732,58.673710 90.311218,60.040607 89.470810,60.948605 
	C86.964180,60.520432 86.285866,61.683365 86.253006,63.968147 
	C85.844002,63.976933 85.434998,63.985718 84.782021,63.554092 
	C84.405830,63.572384 84.029633,63.590679 83.653442,63.608971 
	C84.100357,63.748589 84.547264,63.888203 84.915489,64.725845 
	C84.661957,65.926414 84.408424,67.126991 84.154892,68.327560 
	C84.636955,68.451477 85.119026,68.575386 85.601097,68.699295 
	C86.084839,67.168488 86.568588,65.637680 87.649513,63.775272 
	C88.476212,62.790821 89.302910,61.806370 90.980064,60.887390 
	C93.422539,61.447834 94.265717,65.138077 93.965576,67.638969 
	C94.210007,68.667328 94.454437,69.695686 94.120926,71.351471 
	C94.201378,72.153061 94.281830,72.954643 94.064377,73.178841 
	C93.776505,73.251884 93.488632,73.324921 93.200760,73.397949 
	C93.592674,73.501579 93.984581,73.605209 94.266724,73.024864 
M80.904236,66.669098 
	C80.807381,66.631142 80.710533,66.593185 80.613678,66.555229 
	C80.713974,66.723602 80.814278,66.891975 80.976593,67.535355 
	C81.121773,67.795296 81.266953,68.055237 81.412132,68.315178 
	C81.292686,67.851158 81.173233,67.387131 80.904236,66.669098 
M51.441250,66.789589 
	C51.427013,66.424576 51.412777,66.059555 51.398544,65.694542 
	C51.241505,66.112091 51.084465,66.529640 50.669640,67.095787 
	C50.797619,67.088158 50.925598,67.080521 51.441250,66.789589 
M162.448166,155.462433 
	C162.890305,155.489151 163.332443,155.515869 165.168518,155.626801 
	C163.156891,155.394806 162.537460,155.323380 161.131332,154.974426 
	C160.440567,155.191620 159.749802,155.408813 159.059036,155.626007 
	C159.146500,155.896118 159.233963,156.166245 159.321426,156.436356 
	C160.186310,156.181076 161.051208,155.925797 162.448166,155.462433 
M162.571411,34.934708 
	C162.890549,34.629105 163.209686,34.323502 163.528824,34.017902 
	C163.321243,33.838150 163.113663,33.658398 162.906082,33.478642 
	C162.600601,33.983147 162.295105,34.487652 161.556366,35.212261 
	C161.286270,35.411289 161.097687,35.669792 160.303009,36.064198 
	C158.192642,37.951340 156.082275,39.838486 153.971924,41.725632 
	C154.536072,42.231667 155.100220,42.737701 155.664368,43.243736 
	C157.446915,40.832184 159.229446,38.420628 161.443420,35.786217 
	C161.712326,35.586292 161.900452,35.327614 162.571411,34.934708 
M68.242455,80.413345 
	C68.587540,80.399353 68.932632,80.385361 69.277718,80.371368 
	C68.860245,80.239243 68.442772,80.107124 67.916336,79.332306 
	C66.860535,78.691933 65.804726,78.051567 64.748917,77.411201 
	C64.570099,77.787819 64.391289,78.164444 64.212471,78.541061 
	C65.470200,79.034393 66.727928,79.527718 68.242455,80.413345 
M62.693295,191.933182 
	C64.482712,190.397568 66.272133,188.861954 68.061554,187.326355 
	C67.527359,186.840820 66.993172,186.355270 66.458984,185.869736 
	C64.970100,187.911179 63.481209,189.952621 61.720245,192.102890 
	C61.815445,192.071030 61.910648,192.039185 62.693295,191.933182 
M130.312759,208.067581 
	C127.930557,210.174408 125.548347,212.281235 123.166130,214.388046 
	C123.732590,214.910782 124.299042,215.433517 124.865501,215.956253 
	C126.910538,213.304367 128.955566,210.652481 131.648880,207.930878 
	C132.349670,207.290024 133.050461,206.649170 133.751251,206.008316 
	C133.334869,205.707153 132.918488,205.406006 132.502121,205.104858 
	C132.001205,206.069702 131.500305,207.034546 130.312759,208.067581 
M205.311829,161.067886 
	C202.928894,163.176224 200.545959,165.284561 198.163025,167.392883 
	C198.721420,167.926422 199.279800,168.459961 199.838196,168.993500 
	C201.892746,166.329605 203.947296,163.665726 206.622284,160.945755 
	C207.188019,160.505753 207.753754,160.065765 208.319489,159.625763 
	C208.037201,159.376602 207.754913,159.127441 207.472610,158.878296 
	C206.981125,159.584915 206.489655,160.291550 205.311829,161.067886 
M25.301441,143.067520 
	C22.397493,144.669464 20.094179,146.740982 18.872534,149.658157 
	C19.394241,150.061813 19.915947,150.465454 20.437654,150.869110 
	C22.294497,148.248672 24.151340,145.628250 26.737259,142.914108 
	C27.656872,141.822861 28.576487,140.731598 30.184984,139.723495 
	C32.875324,142.697235 35.080906,147.349472 38.356838,148.295578 
	C45.192570,150.269775 52.593769,150.286026 60.899246,151.236801 
	C56.049709,146.036697 51.337185,143.411942 45.288601,142.588272 
	C41.539677,142.077759 37.956829,140.306824 34.317074,139.050568 
	C32.096924,138.284286 29.910265,137.420959 27.708559,136.601227 
	C27.632362,136.910568 27.556166,137.219910 27.479967,137.529251 
	C28.107620,138.189896 28.735273,138.850540 28.648661,139.809143 
	C27.763117,140.869995 26.877571,141.930847 25.301441,143.067520 
M166.934067,149.453934 
	C157.613907,149.545609 148.293762,149.637299 138.387543,149.185867 
	C135.684784,149.185867 132.982010,149.185867 130.279251,149.185867 
	C130.281250,149.735245 130.283264,150.284622 130.285263,150.834000 
	C133.228546,150.834000 136.171829,150.834000 140.029938,150.963226 
	C149.318970,150.927002 158.607986,150.890793 168.788284,150.966690 
	C171.494461,150.966690 174.200638,150.966690 176.906815,150.966690 
	C176.913818,150.471542 176.920837,149.976379 176.927841,149.481232 
	C173.862228,149.481232 170.796616,149.481232 166.934067,149.453934 
M184.442749,66.218628 
	C191.107803,66.085533 198.495605,69.479591 203.653259,62.169590 
	C199.208893,54.368317 195.389481,52.713837 186.914612,54.763577 
	C185.234329,52.726345 183.653824,50.810078 181.940491,48.340069 
	C181.692764,47.898808 181.445053,47.457546 180.982880,46.338497 
	C177.010986,44.466167 173.208984,41.803104 169.027817,40.904720 
	C162.572311,39.517658 158.866577,43.047737 159.009964,49.629566 
	C159.082550,52.961998 159.894440,56.278320 160.395462,59.764729 
	C157.917358,59.938835 155.601959,60.101509 151.812820,60.367725 
	C155.990417,63.168724 158.679993,65.940781 161.906799,66.893684 
	C166.067856,68.122482 170.615692,68.176353 174.345215,64.566360 
	C175.373718,63.570820 177.681732,62.944824 178.968689,63.393646 
	C180.860733,64.053490 182.362915,65.831177 183.210281,67.103477 
	C177.682297,64.639900 174.963501,65.378922 172.068390,70.572029 
	C174.726196,70.751991 177.169510,70.733139 179.546051,71.122185 
	C182.979721,71.684311 184.083191,70.102081 184.442749,66.218628 
M187.535141,178.802414 
	C191.303040,179.046646 195.109222,179.704834 198.822723,179.361221 
	C200.690567,179.188385 202.390015,177.195694 204.165604,176.025970 
	C203.023880,174.603012 202.104019,172.866882 200.672623,171.852753 
	C199.451553,170.987640 197.642548,170.952408 196.127319,170.558807 
	C196.127319,168.788422 196.127319,167.160263 196.127319,165.446701 
	C191.873047,168.184219 191.826782,167.604782 184.386673,168.198853 
	C179.872879,168.559265 176.231445,167.884491 172.762680,165.329346 
	C171.053894,164.070648 169.448471,162.671616 167.570389,161.153503 
	C167.078934,163.049744 166.676498,164.602539 166.098953,166.830963 
	C164.522293,164.857758 163.497345,163.575012 163.036713,162.998520 
	C160.901733,165.004135 159.250992,167.574203 156.948837,168.469803 
	C153.786072,169.700211 150.137756,169.931015 146.681259,170.031448 
	C145.360352,170.069824 143.500412,168.885574 142.738647,167.707306 
	C140.062515,163.567993 137.424057,165.041763 135.154938,167.692627 
	C133.643417,169.458450 132.876144,171.861343 131.281219,174.930923 
	C134.283112,174.540955 136.124008,174.301804 137.964905,174.062668 
	C140.187393,176.295090 142.764099,178.262421 145.522919,178.564056 
	C153.311798,179.415619 161.110748,179.454315 168.368423,175.445877 
	C170.843277,174.079010 173.717438,173.435135 176.860474,172.297546 
	C176.626129,174.943726 176.486572,176.519455 176.290756,178.730545 
	C179.951813,178.730545 183.261581,178.730545 187.535141,178.802414 
M71.662209,17.104456 
	C68.410400,20.278763 66.887733,24.096714 67.015015,28.118959 
	C70.292061,28.389257 73.162605,28.779158 76.034821,28.791893 
	C77.284103,28.797432 78.762749,28.320248 79.747711,27.558599 
	C83.425003,24.715050 86.941002,21.662909 90.668121,18.563776 
	C87.545914,12.964324 79.056923,11.426413 71.662209,17.104456 
M98.733215,21.549431 
	C99.953621,22.368366 101.174026,23.187304 101.324257,23.288115 
	C106.667427,21.393383 111.168259,19.797354 115.531372,18.250158 
	C109.423355,10.821498 98.873688,11.311636 93.905342,19.702394 
	C95.321541,20.198891 96.708092,20.684990 98.733215,21.549431 
M124.984962,156.580017 
	C135.532913,157.479797 146.097488,159.227890 156.582870,155.978897 
	C155.254761,155.297546 153.914169,155.390961 152.590057,155.282730 
	C142.190002,154.432755 131.770370,153.742813 121.407890,152.556808 
	C117.910103,152.156464 114.483498,149.692520 111.390961,153.936295 
	C115.702835,154.770233 119.911667,155.584229 124.984962,156.580017 
M93.154945,149.472046 
	C96.961105,150.183167 100.767265,150.894272 104.661552,151.621857 
	C105.403290,152.941193 106.313454,154.560135 107.248909,156.224045 
	C109.974083,152.604599 112.370247,149.422134 114.018364,147.233185 
	C107.391464,147.233185 100.113937,147.224792 92.837402,147.305817 
	C92.717377,147.307144 92.609482,148.397507 93.154945,149.472046 
M157.494888,159.097153 
	C150.153427,159.475113 142.811966,159.853058 135.470505,160.231018 
	C136.980988,161.452301 138.553101,161.570236 140.127243,161.646042 
	C143.070206,161.787781 146.452362,161.026291 148.861176,162.226837 
	C153.072189,164.325638 155.625488,161.322311 158.858398,160.367599 
	C158.657196,159.939590 158.455994,159.511566 157.494888,159.097153 
M193.444687,189.911987 
	C195.583847,188.641647 197.723022,187.371323 199.862183,186.100998 
	C199.020233,185.112488 198.178268,184.123978 197.336304,183.135468 
	C193.295593,185.623337 189.254868,188.111206 184.897339,190.794128 
	C186.305038,192.050476 187.489685,193.107758 188.840073,194.312958 
	C190.327927,192.898041 191.628876,191.660858 193.444687,189.911987 
M172.157578,155.904861 
	C180.234985,158.093491 185.315170,156.631119 185.558792,151.770004 
	C180.825043,153.029266 176.163742,154.269257 172.157578,155.904861 
M78.666260,89.003998 
	C79.951599,88.842262 81.236938,88.680527 82.522278,88.518799 
	C82.458519,87.985115 82.394760,87.451431 82.331001,86.917740 
	C75.502495,87.904549 68.331993,84.836082 61.824543,88.981117 
	C67.167969,88.981117 72.511398,88.981117 78.666260,89.003998 
M82.622025,200.507111 
	C78.399834,199.537994 77.995354,203.064499 76.319572,205.093948 
	C76.727333,205.531372 77.135101,205.968781 77.542870,206.406204 
	C79.132462,204.632339 80.722054,202.858490 82.622025,200.507111 
M142.034027,25.474934 
	C141.439529,26.383478 140.845032,27.292023 140.250534,28.200567 
	C140.627136,28.481598 141.003723,28.762629 141.380325,29.043659 
	C143.236496,27.076883 145.092682,25.110106 146.948868,23.143330 
	C146.604721,22.764257 146.260590,22.385185 145.916443,22.006113 
	C144.781357,23.003159 143.646271,24.000204 142.034027,25.474934 
M127.344719,14.262217 
	C129.247757,12.611613 131.150803,10.961009 133.053833,9.310406 
	C132.501190,8.817625 131.948547,8.324844 131.395905,7.832064 
	C129.845856,10.014516 128.295792,12.196968 127.344719,14.262217 
M66.541908,73.504150 
	C66.342804,73.754356 66.125130,73.992935 65.956543,74.262245 
	C65.909454,74.337463 66.007278,74.503418 66.038628,74.627747 
	C66.853340,74.348877 68.155037,74.271576 68.372742,73.745598 
	C68.731552,72.878738 68.389366,71.721725 68.342659,70.687027 
	C67.986816,70.686867 67.630966,70.686714 67.275124,70.686562 
	C67.129189,71.447037 66.983261,72.207512 66.541908,73.504150 
M96.877182,90.592354 
	C96.357109,90.302307 95.837029,90.012260 95.316956,89.722221 
	C95.117004,90.305382 94.917053,90.888535 94.717102,91.471695 
	C95.391182,91.376968 96.065254,91.282234 96.877182,90.592354 
M207.146149,156.250259 
	C206.596832,156.393372 206.047516,156.536484 205.498199,156.679581 
	C205.688538,157.038422 205.878876,157.397263 206.069199,157.756104 
	C206.572144,157.400986 207.075089,157.045883 207.146149,156.250259 
M56.790401,170.500656 
	C56.795399,169.887161 56.800396,169.273666 56.805397,168.660187 
	C56.403111,168.806915 56.000824,168.953659 55.598534,169.100388 
	C55.825459,169.639252 56.052383,170.178101 56.790401,170.500656 
M88.371292,89.099472 
	C88.063263,89.410385 87.755234,89.721291 87.447197,90.032196 
	C87.812904,90.212708 88.178612,90.393211 88.544319,90.573715 
	C88.666634,90.098305 88.788956,89.622887 88.371292,89.099472 
M135.789886,6.475617 
	C135.864822,6.080215 135.939743,5.684814 136.014664,5.289413 
	C135.482513,5.466748 134.950378,5.644082 134.418228,5.821414 
	C134.707184,6.112165 134.996124,6.402917 135.789886,6.475617 
M81.044693,56.959225 
	C81.278778,57.497768 81.492668,58.047798 81.781319,58.555305 
	C81.807297,58.600967 82.316330,58.371891 82.601021,58.270405 
	C82.221283,57.684574 81.841545,57.098740 81.044693,56.959225 
M100.383102,89.207718 
	C100.783569,89.211853 101.184044,89.215981 101.584511,89.220116 
	C101.586090,89.053932 101.598732,88.743286 101.587669,88.742447 
	C101.188942,88.711945 100.788010,88.710335 100.383102,89.207718 
M69.444176,183.711151 
	C69.711990,183.992233 69.979805,184.273315 70.247620,184.554398 
	C70.364105,184.442856 70.588150,184.240692 70.581551,184.232849 
	C70.331909,183.936569 70.061066,183.658142 69.444176,183.711151 
M84.558647,81.291542 
	C84.290649,81.010536 84.022644,80.729530 83.754646,80.448524 
	C83.638336,80.559586 83.414818,80.761139 83.421173,80.768661 
	C83.671272,81.064987 83.942291,81.343658 84.558647,81.291542 
M79.790451,77.163559 
	C79.717117,76.706551 79.643784,76.249542 79.570450,75.792534 
	C79.334534,76.000725 78.876793,76.249847 78.906181,76.409065 
	C78.980705,76.812897 79.273628,77.176422 79.790451,77.163559 
M50.329094,91.156433 
	C50.104946,90.912338 49.880798,90.668243 49.656654,90.424149 
	C49.504272,90.937309 49.351887,91.450462 49.199505,91.963623 
	C49.509605,91.848427 49.819706,91.733231 50.329094,91.156433 
M148.710785,20.555599 
	C148.994080,20.286186 149.277390,20.016775 149.560684,19.747360 
	C149.449249,19.630749 149.247147,19.406544 149.239441,19.413034 
	C148.940582,19.664871 148.659485,19.937780 148.710785,20.555599 
M65.708763,18.560329 
	C65.992058,18.290310 66.275352,18.020290 66.558640,17.750265 
	C66.447182,17.633453 66.335724,17.516642 66.224258,17.399832 
	C65.940933,17.670343 65.657616,17.940855 65.708763,18.560329 
M52.392487,88.203514 
	C52.783710,88.207153 53.175133,88.214546 53.565083,88.194054 
	C53.575436,88.193504 53.580479,87.749084 53.570198,87.748306 
	C53.181335,87.719055 52.790382,87.717613 52.392487,88.203514 
M71.537697,69.373108 
	C71.769318,69.062172 72.000938,68.751236 72.232559,68.440300 
	C71.912125,68.640640 71.591690,68.840981 71.537697,69.373108 
M90.817604,77.959480 
	C90.723938,77.561150 90.630272,77.162827 90.536606,76.764496 
	C90.417206,76.850945 90.187073,76.952782 90.196594,77.021301 
	C90.252785,77.425674 90.364723,77.822296 90.817604,77.959480 
M75.839424,69.048027 
	C75.585793,69.197731 75.209396,69.296501 75.119156,69.513992 
	C75.052536,69.674583 75.359039,69.989990 75.499298,70.236420 
	C75.639977,69.989792 75.780647,69.743156 75.839424,69.048027 
M84.953552,84.318459 
	C85.095154,84.081268 85.236748,83.844078 85.378357,83.606888 
	C85.134705,83.518997 84.891060,83.431107 84.647400,83.343216 
	C84.607414,83.694931 84.567429,84.046654 84.953552,84.318459 
M93.279228,102.054695 
	C93.617516,102.031563 93.955795,102.008430 94.294083,101.985298 
	C94.222588,101.747559 94.151085,101.509819 94.079590,101.272087 
	C93.833031,101.389183 93.586479,101.506271 93.279228,102.054695 
M85.695450,89.097969 
	C85.390877,88.874298 85.086304,88.650635 84.781731,88.426964 
	C84.987625,88.750481 85.193512,89.074005 85.695450,89.097969 
M84.246758,198.171860 
	C84.411377,198.117584 84.575996,198.063309 84.740616,198.009018 
	C84.575386,197.956329 84.410156,197.903625 84.246758,198.171860 
M70.634811,65.474228 
	C70.843544,65.528282 71.052284,65.582344 71.261017,65.636406 
	C71.126785,65.503487 70.992546,65.370575 70.634811,65.474228 
M55.743732,68.188049 
	C55.626316,68.028503 55.508896,67.868950 55.391476,67.709404 
	C55.415703,67.930908 55.439934,68.152412 55.743732,68.188049 
M60.476303,85.360565 
	C60.529751,85.154816 60.583199,84.949059 60.636646,84.743309 
	C60.505508,84.875587 60.374371,85.007866 60.476303,85.360565 
M74.587845,82.517136 
	C74.587845,82.517136 74.475815,82.583786 74.587845,82.517136 
M48.897884,100.560791 
	C48.691528,100.487427 48.485172,100.414055 48.278816,100.340691 
	C48.346142,100.556419 48.413467,100.772148 48.897884,100.560791 
M98.518219,106.155479 
	C98.443619,106.353821 98.369019,106.552162 98.294426,106.750519 
	C98.484283,106.694778 98.674141,106.639046 98.518219,106.155479 
M102.408760,106.486664 
	C102.408760,106.486664 102.523781,106.416504 102.408760,106.486664 
M80.615883,54.541477 
	C80.615883,54.541477 80.451958,54.445190 80.451958,54.445190 
	C80.451958,54.445190 80.474396,54.644215 80.615883,54.541477 
z"/>
<path fill="#FBFBFB" opacity="1.000000" stroke="none" 
	d="
M176.998566,222.019699 
	C182.002304,221.593597 187.006027,221.167511 192.009766,220.741409 
	C191.992355,219.880508 191.974930,219.019608 191.957520,218.158691 
	C177.558701,217.426590 163.159897,216.694473 148.761078,215.962357 
	C148.722549,215.510513 148.684036,215.058670 148.645523,214.606842 
	C156.789383,213.668488 164.933243,212.730133 174.066940,211.677734 
	C167.516861,209.936447 161.821732,208.370636 156.098145,206.916916 
	C151.329895,205.705841 147.840622,203.285706 145.771362,198.518433 
	C143.332397,192.899338 138.794754,189.973358 132.464478,189.695847 
	C124.489502,189.346237 116.511467,188.821121 108.573738,187.996506 
	C105.680748,187.695969 102.865257,186.413513 100.076698,185.406555 
	C96.967216,184.283722 95.295181,182.500366 98.697212,179.028778 
	C92.935707,178.407104 87.777672,178.178436 82.779030,177.164185 
	C80.494873,176.700699 78.524857,174.689041 76.412369,173.379517 
	C78.451805,171.597595 80.383377,169.664688 82.576439,168.097794 
	C83.664223,167.320557 85.232727,167.216125 86.475189,166.128769 
	C80.104210,165.731659 73.733315,165.333099 67.362221,164.937881 
	C61.016247,164.544205 59.023506,162.610107 57.976315,156.237274 
	C57.740631,154.802994 56.835445,153.478745 56.111469,151.811356 
	C64.256828,153.156662 72.782196,154.236984 81.150017,156.046021 
	C88.402679,157.613983 95.519104,159.873962 102.605568,162.113419 
	C104.919487,162.844666 107.528290,163.989151 109.017586,165.768692 
	C120.135704,179.053543 136.782333,177.774872 151.282257,182.048889 
	C154.740540,183.068253 158.523697,183.018402 162.165787,183.374954 
	C173.202209,184.455444 181.808807,190.030380 188.957550,198.206558 
	C209.810211,178.795761 221.159332,155.101883 224.627686,127.154305 
	C225.000000,159.924637 225.000000,192.849289 225.000000,226.000000 
	C194.312805,226.000000 163.625061,226.000000 132.468658,226.000000 
	C133.796402,225.659439 135.580078,225.131546 137.391251,225.008667 
	C149.386948,224.194946 161.388535,223.468094 174.126740,222.640137 
	C175.576370,222.384781 176.287460,222.202240 176.998566,222.019699 
z"/>
<path fill="#FDFDFD" opacity="1.000000" stroke="none" 
	d="
M225.000000,100.531342 
	C224.202652,97.235435 223.460922,93.458084 222.599503,89.708244 
	C212.040085,43.743382 182.678207,16.288538 138.015472,4.015730 
	C133.883682,2.880363 129.546112,2.493845 125.152039,1.379807 
	C158.260269,1.000000 191.520523,1.000000 225.000000,1.000000 
	C225.000000,34.020573 225.000000,67.041626 225.000000,100.531342 
z"/>
<path fill="#FCFCFC" opacity="1.000000" stroke="none" 
	d="
M4.078972,137.005081 
	C10.324528,167.254105 26.779985,190.763428 51.817596,208.350098 
	C54.668201,210.352402 59.021015,210.748993 62.719341,210.907272 
	C72.185501,211.312363 81.675941,211.125229 91.155426,211.261414 
	C93.592911,211.296432 96.025795,211.651428 98.460793,211.859421 
	C98.479256,212.421188 98.497726,212.982956 98.516190,213.544708 
	C78.607811,215.273361 58.699432,217.001999 38.791054,218.730637 
	C38.789940,219.369659 38.788826,220.008682 38.787712,220.647720 
	C56.240002,223.834961 74.076096,223.427811 91.839363,225.603546 
	C61.735931,226.000000 31.471863,226.000000 1.000000,226.000000 
	C1.000000,192.646057 1.000000,159.291687 1.000000,125.468658 
	C1.787621,128.150955 2.575242,131.301926 3.533608,135.097824 
	C3.829226,136.163544 3.954099,136.584305 4.078972,137.005081 
z"/>
<path fill="#FDFDFD" opacity="1.000000" stroke="none" 
	d="
M96.531342,1.000000 
	C90.696236,2.640477 84.225540,3.813762 78.115692,5.996932 
	C37.164917,20.629459 11.752637,49.015812 2.874023,91.827316 
	C2.469604,93.777382 2.115983,95.737976 1.369350,97.846832 
	C1.000000,65.740112 1.000000,33.480228 1.000000,1.000000 
	C32.687222,1.000000 64.374954,1.000000 96.531342,1.000000 
z"/>
<path fill="#B4B4B4" opacity="1.000000" stroke="none" 
	d="
M124.428459,226.000000 
	C125.904503,225.762650 127.809013,225.525314 129.856750,225.643982 
	C128.285645,226.000000 126.571281,226.000000 124.428459,226.000000 
z"/>
<path fill="#B4B4B4" opacity="1.000000" stroke="none" 
	d="
M98.375000,226.000000 
	C98.750702,225.695694 99.501404,225.391388 100.604622,225.344757 
	C100.957138,225.602417 101.000000,226.000000 101.000000,226.000000 
	C100.250000,226.000000 99.500000,226.000000 98.375000,226.000000 
z"/>
<path fill="#878787" opacity="1.000000" stroke="none" 
	d="
M101.375000,226.000000 
	C101.000000,226.000000 100.957138,225.602417 100.946304,225.402771 
	C101.839691,225.269867 102.743912,225.336624 103.824066,225.701691 
	C103.250000,226.000000 102.500000,226.000000 101.375000,226.000000 
z"/>
<path fill="#FAFAFA" opacity="1.000000" stroke="none" 
	d="
M133.058044,63.856403 
	C138.353424,63.957485 143.648804,64.059280 148.944199,64.159416 
	C153.023254,64.236549 156.547226,65.181755 157.515427,70.154274 
	C162.509094,68.725029 167.176498,68.187683 170.956894,72.122238 
	C169.551910,74.447029 168.206741,76.672852 166.559265,79.510155 
	C165.700272,81.835548 165.143600,83.549461 164.810349,84.575485 
	C161.561493,85.546715 158.897934,86.308090 156.257233,87.141869 
	C153.397461,88.044792 150.609863,89.254608 147.693787,89.873863 
	C145.676468,90.302261 143.494705,89.956200 141.386414,89.956200 
	C141.389984,90.253357 141.393555,90.550522 141.397110,90.847679 
	C154.704788,90.847679 168.012451,90.847679 181.320129,90.847679 
	C181.319519,90.378845 181.318893,89.910011 181.318283,89.441177 
	C176.246063,89.441177 171.173859,89.441177 166.244873,89.441177 
	C166.874451,86.023163 167.339615,83.497803 167.804779,80.972435 
	C169.215912,78.934677 170.380325,76.654976 172.090881,74.910873 
	C175.381760,71.555473 178.956284,72.426414 182.358414,74.966980 
	C188.650085,67.201439 190.639465,66.674355 197.600143,71.021492 
	C198.596741,69.746361 199.478119,68.328018 200.636703,67.192513 
	C203.718170,64.172386 206.963837,64.270180 209.503403,67.757866 
	C211.598785,70.635551 213.186218,73.883102 215.517639,77.849579 
	C209.168350,77.849579 203.935654,77.849579 198.702957,77.849579 
	C198.693466,78.103172 198.683990,78.356773 198.674500,78.610367 
	C204.135208,79.123703 209.595917,79.637039 215.056625,80.150375 
	C215.067596,80.620781 215.078552,81.091179 215.089508,81.561584 
	C209.242966,81.561584 203.396423,81.561584 197.549881,81.561584 
	C197.495575,82.020744 197.441269,82.479904 197.386948,82.939056 
	C198.353149,83.266075 199.305313,83.814407 200.288269,83.876678 
	C202.776459,84.034325 205.278412,83.991814 207.774933,83.997375 
	C219.381287,84.023262 217.589813,82.498878 219.476349,93.679283 
	C222.032913,108.830467 221.931488,124.092941 218.752792,139.601410 
	C169.153610,139.601410 119.771622,139.601410 70.318062,139.601410 
	C67.841057,122.236717 79.160316,107.550293 80.905167,90.394165 
	C83.058884,94.637947 85.212601,98.881729 87.635445,103.655815 
	C88.611366,102.485817 89.282883,101.680748 90.225922,100.463249 
	C90.497429,100.050827 90.930237,100.164162 90.930237,100.164162 
	C91.440605,101.771317 91.950974,103.378464 92.866714,105.174973 
	C93.334160,106.089516 93.396217,106.814690 93.458267,107.539871 
	C93.647179,107.386734 93.836090,107.233597 94.024994,107.080460 
	C95.337814,107.401260 96.650635,107.722054 98.313469,108.128372 
	C98.043007,109.182243 97.708580,110.485313 96.992989,113.273605 
	C99.211685,111.578125 100.452141,110.630196 102.287773,109.227455 
	C101.669739,113.135895 101.124458,116.584267 100.413116,120.632881 
	C100.768646,121.137276 101.290245,121.041428 101.811829,120.945572 
	C102.515549,120.257736 103.289101,119.627571 103.912163,118.873123 
	C110.024940,111.471291 110.229713,107.118248 104.902924,99.305092 
	C104.453423,98.645767 104.111412,97.913177 103.060226,97.073013 
	C100.998398,96.441681 99.595787,95.951950 98.193184,95.462219 
	C98.193184,95.462219 98.227493,95.146759 98.208984,94.808777 
	C98.190475,94.470795 97.992882,94.106155 97.992882,94.106155 
	C98.735283,93.762978 99.477676,93.419807 100.314957,92.692749 
	C100.409836,92.308868 100.537407,92.244385 100.537407,92.244385 
	C102.253067,92.334358 103.968727,92.424339 105.899132,92.525581 
	C105.727669,91.713776 105.562614,90.932320 105.328644,89.824608 
	C107.736366,91.388626 109.837891,92.753746 112.407501,94.422920 
	C112.603043,92.667160 112.738716,91.448975 112.784500,90.056389 
	C112.694595,89.881996 112.902985,89.486359 112.902985,89.486359 
	C114.260307,91.996544 115.617622,94.506737 117.383293,97.772118 
	C118.763046,87.824036 115.855637,83.484230 107.743881,81.584114 
	C108.082848,80.921829 108.464462,80.176224 108.846085,79.430618 
	C104.820793,78.593758 100.795494,77.756889 96.521896,76.868401 
	C96.942513,75.210732 97.646591,72.435959 98.350670,69.661194 
	C98.019554,69.523361 97.688438,69.385536 97.357323,69.247711 
	C96.884407,69.814499 96.411484,70.381287 95.483414,70.983292 
	C95.028259,71.018509 94.698868,70.724045 94.698868,70.724045 
	C94.454437,69.695686 94.210007,68.667328 93.965576,67.638969 
	C94.265717,65.138077 93.422539,61.447834 90.520615,60.914131 
	C90.061165,60.940876 90.180130,60.872417 90.180130,60.872417 
	C90.311218,60.040607 90.821732,58.673710 90.516472,58.457245 
	C85.933815,55.207661 81.479935,51.645302 76.507835,49.115509 
	C72.136902,46.891586 67.252800,45.265617 62.416927,44.494755 
	C58.478348,43.866924 54.275837,44.894833 50.190357,45.188538 
	C50.197380,45.799786 50.204403,46.411030 50.211430,47.022278 
	C54.935669,48.270058 59.659912,49.517838 64.962875,50.918472 
	C63.583958,51.729881 62.860119,52.155815 61.055679,53.217617 
	C64.398575,54.026001 66.724258,54.588398 69.382767,55.418282 
	C69.804497,56.772255 69.893402,57.858753 69.688019,58.988190 
	C69.294632,59.350079 69.195534,59.669033 69.048386,60.314491 
	C68.957672,61.077751 68.915009,61.514503 68.872345,61.951263 
	C67.706566,61.648117 66.555481,61.260059 65.372658,61.055473 
	C57.044106,59.614929 48.603363,58.698162 40.596382,61.980305 
	C36.976887,63.463970 33.998283,66.511139 30.728924,68.848976 
	C30.991280,69.389702 31.253635,69.930428 31.515993,70.471161 
	C34.240005,69.730270 36.952316,68.941353 39.694103,68.273415 
	C40.713207,68.025146 41.801346,68.060226 42.544533,68.459549 
	C42.131760,69.178246 42.032455,69.403488 41.933151,69.628731 
	C42.289127,69.709602 42.645103,69.790474 43.001080,69.871338 
	C46.434048,69.871338 49.867012,69.871338 53.458168,69.871338 
	C53.302376,70.155762 52.816910,71.042046 52.206818,72.155869 
	C53.624908,72.071152 54.907856,71.994507 56.920708,71.907433 
	C58.086227,71.969048 58.521854,72.041084 58.957478,72.113129 
	C60.425312,72.546486 61.893143,72.979851 63.180492,73.359932 
	C58.178497,77.049446 58.178024,77.273727 52.463573,77.261620 
	C39.795872,77.234802 31.443903,84.204941 24.327076,94.457062 
	C24.462315,95.342033 24.911991,95.648254 25.361666,95.954483 
	C26.961475,94.983452 28.561287,94.012428 30.648491,93.182114 
	C31.156801,93.755753 31.177719,94.188683 31.198635,94.621620 
	C31.876657,94.276031 32.554680,93.930435 33.232704,93.584846 
	C33.906250,93.129456 34.579800,92.674072 35.588142,91.992325 
	C35.780922,92.896202 35.943722,93.659508 36.099869,94.391617 
	C39.347816,93.180756 42.492271,92.008484 46.847740,90.384735 
	C45.431755,92.555099 44.491539,94.225937 43.333027,95.728462 
	C39.984108,100.071777 36.547329,104.347351 33.145046,108.649521 
	C33.619232,109.107338 34.093418,109.565155 34.567608,110.022972 
	C36.773987,108.517807 38.987385,107.022797 41.185036,105.504997 
	C44.170437,103.443130 47.060436,101.628891 51.128178,102.405266 
	C52.548203,102.676285 54.366302,100.861618 55.918587,100.043716 
	C55.776638,100.781799 55.515377,102.140266 55.259136,103.472633 
	C58.689320,101.428673 62.126060,99.380798 65.562798,97.332924 
	C65.572174,97.590004 65.581543,97.847084 65.590919,98.104172 
	C66.403572,98.042839 67.216225,97.981514 68.467232,97.913223 
	C68.905586,97.906258 69.162857,98.161034 69.162857,98.161034 
	C69.820663,98.298248 70.749855,98.781929 71.090927,98.514778 
	C72.901276,97.096756 74.564018,95.490288 77.332855,93.000397 
	C72.004372,109.598671 67.079521,124.939659 62.113712,140.408203 
	C57.494495,136.639893 54.505970,128.083969 44.351921,128.336716 
	C40.296612,122.577400 33.645264,121.167137 25.771425,122.867516 
	C24.313438,123.182373 22.163183,122.177025 20.888218,121.114250 
	C16.356876,117.337082 11.557119,115.467995 5.227357,118.150551 
	C4.438423,106.874687 5.336813,96.093185 8.679687,85.879807 
	C11.700801,76.649475 16.382082,67.966644 20.243761,59.004681 
	C21.337263,56.466942 23.058084,55.861549 25.723040,55.904282 
	C36.043098,56.069778 46.367386,55.971577 56.690098,55.971577 
	C56.722008,55.358364 56.753914,54.745155 56.785824,54.131943 
	C47.502769,54.131943 38.219711,54.131943 28.604675,54.131943 
	C31.374050,43.879719 35.807587,41.591595 45.577332,44.241882 
	C46.423382,35.184471 49.730988,27.838722 59.877098,24.973053 
	C60.664886,24.950619 60.840286,24.914371 61.015682,24.878124 
	C62.741970,26.923550 64.468262,28.968973 66.717674,31.634232 
	C69.844818,31.634232 74.369118,31.634232 79.728935,31.634232 
	C88.446579,19.848200 92.912422,18.858372 102.381660,27.418085 
	C104.709091,25.577604 107.010605,23.742796 109.336952,21.940042 
	C109.579819,21.751844 109.981712,21.648386 110.289551,21.683470 
	C112.865295,21.977003 115.634605,21.806873 117.973465,22.724707 
	C126.793449,26.185896 138.515121,26.043097 139.669266,40.410362 
	C131.374054,40.410362 122.881920,40.410362 114.389793,40.410362 
	C114.390556,40.820110 114.391327,41.229855 114.392090,41.639603 
	C121.658142,42.075375 128.927185,42.466991 136.189453,42.958668 
	C144.332703,43.509991 149.042419,48.287323 149.838989,57.535427 
	C144.343399,57.535427 138.924332,57.535427 133.505280,57.535427 
	C133.527863,57.851135 133.550430,58.166847 133.573013,58.482555 
	C139.339722,59.046406 145.106415,59.610252 150.873108,60.174103 
	C150.816010,60.850536 150.758896,61.526974 150.701797,62.203407 
	C145.141098,62.203407 139.580383,62.203407 133.108109,62.122108 
	C128.633881,62.040810 125.071220,62.040810 121.508560,62.040810 
	C121.482857,62.646008 121.457153,63.251205 121.431450,63.856403 
	C125.306984,63.856403 129.182510,63.856403 133.058044,63.856403 
M155.744186,127.744835 
	C149.348511,126.128784 142.956207,124.505966 138.054092,118.147240 
	C126.000854,127.269646 112.950417,133.950699 97.910698,135.936584 
	C125.733643,135.936584 153.556580,135.936584 181.030411,135.936584 
	C173.018082,133.284256 164.791367,130.560959 155.744186,127.744835 
z"/>
<path fill="#F9F9F9" opacity="1.000000" stroke="none" 
	d="
M184.031189,67.132645 
	C182.362915,65.831177 180.860733,64.053490 178.968689,63.393646 
	C177.681732,62.944824 175.373718,63.570820 174.345215,64.566360 
	C170.615692,68.176353 166.067856,68.122482 161.906799,66.893684 
	C158.679993,65.940781 155.990417,63.168724 151.812820,60.367725 
	C155.601959,60.101509 157.917358,59.938835 160.395462,59.764729 
	C159.894440,56.278320 159.082550,52.961998 159.009964,49.629566 
	C158.866577,43.047737 162.572311,39.517658 169.027817,40.904720 
	C173.208984,41.803104 177.010986,44.466167 180.618881,46.702686 
	C178.114746,47.042362 175.929520,46.738224 173.847504,47.074032 
	C171.868622,47.393200 169.997681,48.381470 167.831329,49.044479 
	C167.312180,49.296402 167.040955,49.579384 166.769730,49.862366 
	C167.022095,50.007183 167.274475,50.152000 167.526840,50.296818 
	C167.689499,49.863739 167.852158,49.430660 168.479172,49.000999 
	C173.320114,48.967548 177.696716,48.930676 182.073303,48.893806 
	C183.653824,50.810078 185.234329,52.726345 186.914612,54.763577 
	C195.389481,52.713837 199.208893,54.368317 203.653259,62.169590 
	C198.495605,69.479591 191.107803,66.085533 184.197479,66.652420 
	C183.952194,67.086205 184.031189,67.132645 184.031189,67.132645 
z"/>
<path fill="#F4F4F4" opacity="1.000000" stroke="none" 
	d="
M187.053253,178.766479 
	C183.261581,178.730545 179.951813,178.730545 176.290756,178.730545 
	C176.486572,176.519455 176.626129,174.943726 176.860474,172.297546 
	C173.717438,173.435135 170.843277,174.079010 168.368423,175.445877 
	C161.110748,179.454315 153.311798,179.415619 145.522919,178.564056 
	C142.764099,178.262421 140.187393,176.295090 137.964905,174.062668 
	C136.124008,174.301804 134.283112,174.540955 131.281219,174.930923 
	C132.876144,171.861343 133.643417,169.458450 135.154938,167.692627 
	C137.424057,165.041763 140.062515,163.567993 142.738647,167.707306 
	C143.500412,168.885574 145.360352,170.069824 146.681259,170.031448 
	C150.137756,169.931015 153.786072,169.700211 156.948837,168.469803 
	C159.250992,167.574203 160.901733,165.004135 163.036713,162.998520 
	C163.497345,163.575012 164.522293,164.857758 166.098953,166.830963 
	C166.676498,164.602539 167.078934,163.049744 167.570389,161.153503 
	C169.448471,162.671616 171.053894,164.070648 172.762680,165.329346 
	C176.231445,167.884491 179.872879,168.559265 184.386673,168.198853 
	C191.826782,167.604782 191.873047,168.184219 196.127319,165.446701 
	C196.127319,167.160263 196.127319,168.788422 196.127319,170.558807 
	C197.642548,170.952408 199.451553,170.987640 200.672623,171.852753 
	C202.104019,172.866882 203.023880,174.603012 204.165604,176.025970 
	C202.390015,177.195694 200.690567,179.188385 198.822723,179.361221 
	C195.109222,179.704834 191.303040,179.046646 187.053253,178.766479 
z"/>
<path fill="#F6F6F6" opacity="1.000000" stroke="none" 
	d="
M71.949013,16.866974 
	C79.056923,11.426413 87.545914,12.964324 90.668121,18.563776 
	C86.941002,21.662909 83.425003,24.715050 79.747711,27.558599 
	C78.762749,28.320248 77.284103,28.797432 76.034821,28.791893 
	C73.162605,28.779158 70.292061,28.389257 67.015015,28.118959 
	C66.887733,24.096714 68.410400,20.278763 71.949013,16.866974 
z"/>
<path fill="#F4F4F4" opacity="1.000000" stroke="none" 
	d="
M29.362928,139.511169 
	C28.735273,138.850540 28.107620,138.189896 27.479967,137.529251 
	C27.556166,137.219910 27.632362,136.910568 27.708559,136.601227 
	C29.910265,137.420959 32.096924,138.284286 34.317074,139.050568 
	C37.956829,140.306824 41.539677,142.077759 45.288601,142.588272 
	C51.337185,143.411942 56.049709,146.036697 60.899246,151.236801 
	C52.593769,150.286026 45.192570,150.269775 38.356838,148.295578 
	C35.080906,147.349472 32.875324,142.697235 29.792465,139.664673 
	C29.399948,139.605850 29.362930,139.511169 29.362928,139.511169 
z"/>
<path fill="#F2F2F2" opacity="1.000000" stroke="none" 
	d="
M98.413925,21.360260 
	C96.708092,20.684990 95.321541,20.198891 93.905342,19.702394 
	C98.873688,11.311636 109.423355,10.821498 115.531372,18.250158 
	C111.168259,19.797354 106.667427,21.393383 101.324257,23.288115 
	C101.174026,23.187304 99.953621,22.368366 98.413925,21.360260 
z"/>
<path fill="#E4E4E4" opacity="1.000000" stroke="none" 
	d="
M124.552727,156.489136 
	C119.911667,155.584229 115.702835,154.770233 111.390961,153.936295 
	C114.483498,149.692520 117.910103,152.156464 121.407890,152.556808 
	C131.770370,153.742813 142.190002,154.432755 152.590057,155.282730 
	C153.914169,155.390961 155.254761,155.297546 156.582870,155.978897 
	C146.097488,159.227890 135.532913,157.479797 124.552727,156.489136 
z"/>
<path fill="#0F0F0F" opacity="1.000000" stroke="none" 
	d="
M167.587067,80.785210 
	C167.339615,83.497803 166.874451,86.023163 166.244873,89.441177 
	C171.173859,89.441177 176.246063,89.441177 181.318283,89.441177 
	C181.318893,89.910011 181.319519,90.378845 181.320129,90.847679 
	C168.012451,90.847679 154.704788,90.847679 141.397110,90.847679 
	C141.393555,90.550522 141.389984,90.253357 141.386414,89.956200 
	C143.494705,89.956200 145.676468,90.302261 147.693787,89.873863 
	C150.609863,89.254608 153.397461,88.044792 156.257233,87.141869 
	C158.897934,86.308090 161.561493,85.546715 164.810349,84.575485 
	C165.143600,83.549461 165.700272,81.835548 166.544373,79.854141 
	C167.010986,79.923767 167.190186,80.260872 167.587067,80.785210 
z"/>
<path fill="#EDEDED" opacity="1.000000" stroke="none" 
	d="
M92.825432,149.225861 
	C92.609482,148.397507 92.717377,147.307144 92.837402,147.305817 
	C100.113937,147.224792 107.391464,147.233185 114.018364,147.233185 
	C112.370247,149.422134 109.974083,152.604599 107.248909,156.224045 
	C106.313454,154.560135 105.403290,152.941193 104.661552,151.621857 
	C100.767265,150.894272 96.961105,150.183167 92.825432,149.225861 
z"/>
<path fill="#DADADA" opacity="1.000000" stroke="none" 
	d="
M157.874847,159.090347 
	C158.455994,159.511566 158.657196,159.939590 158.858398,160.367599 
	C155.625488,161.322311 153.072189,164.325638 148.861176,162.226837 
	C146.452362,161.026291 143.070206,161.787781 140.127243,161.646042 
	C138.553101,161.570236 136.980988,161.452301 135.470505,160.231018 
	C142.811966,159.853058 150.153427,159.475113 157.874847,159.090347 
z"/>
<path fill="#E4E4E4" opacity="1.000000" stroke="none" 
	d="
M193.187256,190.167847 
	C191.628876,191.660858 190.327927,192.898041 188.840073,194.312958 
	C187.489685,193.107758 186.305038,192.050476 184.897339,190.794128 
	C189.254868,188.111206 193.295593,185.623337 197.336304,183.135468 
	C198.178268,184.123978 199.020233,185.112488 199.862183,186.100998 
	C197.723022,187.371323 195.583847,188.641647 193.187256,190.167847 
z"/>
<path fill="#F2F2F2" opacity="1.000000" stroke="none" 
	d="
M183.930603,67.045792 
	C184.083191,70.102081 182.979721,71.684311 179.546051,71.122185 
	C177.169510,70.733139 174.726196,70.751991 172.068390,70.572029 
	C174.963501,65.378922 177.682297,64.639900 183.620728,67.118057 
	C184.031189,67.132645 183.952194,67.086205 183.930603,67.045792 
z"/>
<path fill="#E4E4E4" opacity="1.000000" stroke="none" 
	d="
M171.830002,155.707062 
	C176.163742,154.269257 180.825043,153.029266 185.558792,151.770004 
	C185.315170,156.631119 180.234985,158.093491 171.830002,155.707062 
z"/>
<path fill="#0A0A0A" opacity="1.000000" stroke="none" 
	d="
M78.260544,88.992554 
	C72.511398,88.981117 67.167969,88.981117 61.824543,88.981117 
	C68.331993,84.836082 75.502495,87.904549 82.331001,86.917740 
	C82.394760,87.451431 82.458519,87.985115 82.522278,88.518799 
	C81.236938,88.680527 79.951599,88.842262 78.260544,88.992554 
z"/>
<path fill="#F2F2F2" opacity="1.000000" stroke="none" 
	d="
M138.973602,149.728973 
	C148.293762,149.637299 157.613907,149.545609 167.304474,149.702240 
	C167.846115,150.228043 167.920151,150.529388 167.897018,150.854584 
	C158.607986,150.890793 149.318970,150.927002 139.591736,150.615372 
	C139.093536,150.087997 139.033569,149.908493 138.973602,149.728973 
z"/>
<path fill="#6F6F6F" opacity="1.000000" stroke="none" 
	d="
M182.006897,48.616936 
	C177.696716,48.930676 173.320114,48.967548 168.493164,49.022232 
	C168.042816,49.040047 168.079269,49.075542 168.079269,49.075539 
	C169.997681,48.381470 171.868622,47.393200 173.847504,47.074032 
	C175.929520,46.738224 178.114746,47.042362 180.726105,47.041580 
	C181.445053,47.457546 181.692764,47.898808 182.006897,48.616936 
z"/>
<path fill="#121212" opacity="1.000000" stroke="none" 
	d="
M116.001137,192.998398 
	C111.674072,192.752960 107.347015,192.507523 103.019951,192.262070 
	C103.039093,191.896286 103.058228,191.530487 103.077362,191.164688 
	C107.985420,191.164688 112.893486,191.164688 118.519135,191.164688 
	C117.510239,191.799332 116.948341,192.152786 116.193222,192.753128 
	C116.000000,193.000000 116.001137,192.998398 116.001137,192.998398 
z"/>
<path fill="#0A0A0A" opacity="1.000000" stroke="none" 
	d="
M98.125504,95.844551 
	C99.595787,95.951950 100.998398,96.441681 102.702019,97.043335 
	C101.142319,98.906593 99.281601,100.657944 97.420883,102.409286 
	C96.953094,102.018669 96.485313,101.628044 96.017525,101.237419 
	C96.697624,99.567238 97.377724,97.897064 98.125504,95.844551 
z"/>
<path fill="#4B4B4B" opacity="1.000000" stroke="none" 
	d="
M133.056061,63.591507 
	C129.182510,63.856403 125.306984,63.856403 121.431450,63.856403 
	C121.457153,63.251205 121.482857,62.646008 121.508560,62.040810 
	C125.071220,62.040810 128.633881,62.040810 132.647644,62.157543 
	C133.083847,62.625053 133.068954,62.975830 133.056061,63.591507 
z"/>
<path fill="#121212" opacity="1.000000" stroke="none" 
	d="
M4.416836,136.958740 
	C3.954099,136.584305 3.829226,136.163544 3.750857,135.415604 
	C6.301905,133.081085 8.806449,131.073715 11.655497,129.033173 
	C12.000000,129.000000 12.001219,129.001221 12.001221,129.001221 
	C9.585715,131.638290 7.170207,134.275360 4.416836,136.958740 
z"/>
<path fill="#0F0F0F" opacity="1.000000" stroke="none" 
	d="
M26.008183,143.007812 
	C24.151340,145.628250 22.294497,148.248672 20.437654,150.869110 
	C19.915947,150.465454 19.394241,150.061813 18.872534,149.658157 
	C20.094179,146.740982 22.397493,144.669464 25.650709,143.033752 
	C25.999977,143.000000 26.008183,143.007812 26.008183,143.007812 
z"/>
<path fill="#080808" opacity="1.000000" stroke="none" 
	d="
M69.982307,58.945248 
	C69.893402,57.858753 69.804497,56.772255 69.767990,55.374405 
	C71.070396,56.493641 72.320389,57.924240 74.060745,59.916046 
	C72.321358,60.715622 70.956329,61.343105 69.231827,61.960926 
	C68.915009,61.514503 68.957672,61.077751 69.250656,60.192749 
	C69.743637,59.527618 69.904091,59.261200 69.982307,58.945248 
z"/>
<path fill="#0F0F0F" opacity="1.000000" stroke="none" 
	d="
M82.466835,200.795868 
	C80.722054,202.858490 79.132462,204.632339 77.542870,206.406204 
	C77.135101,205.968781 76.727333,205.531372 76.319572,205.093948 
	C77.995354,203.064499 78.399834,199.537994 82.466835,200.795868 
z"/>
<path fill="#121212" opacity="1.000000" stroke="none" 
	d="
M206.001831,161.001831 
	C203.947296,163.665726 201.892746,166.329605 199.838196,168.993500 
	C199.279800,168.459961 198.721420,167.926422 198.163025,167.392883 
	C200.545959,165.284561 202.928894,163.176224 205.655914,161.033936 
	C206.000000,161.000000 206.001831,161.001831 206.001831,161.001831 
z"/>
<path fill="#121212" opacity="1.000000" stroke="none" 
	d="
M131.000610,208.000610 
	C128.955566,210.652481 126.910538,213.304367 124.865501,215.956253 
	C124.299042,215.433517 123.732590,214.910782 123.166130,214.388046 
	C125.548347,212.281235 127.930557,210.174408 130.656372,208.033783 
	C131.000000,208.000000 131.000610,208.000610 131.000610,208.000610 
z"/>
<path fill="#0F0F0F" opacity="1.000000" stroke="none" 
	d="
M161.011993,36.009071 
	C159.229446,38.420628 157.446915,40.832184 155.664368,43.243736 
	C155.100220,42.737701 154.536072,42.231667 153.971924,41.725632 
	C156.082275,39.838486 158.192642,37.951340 160.651505,36.032089 
	C161.000000,35.999981 161.011993,36.009071 161.011993,36.009071 
z"/>
<path fill="#121212" opacity="1.000000" stroke="none" 
	d="
M142.272614,25.236092 
	C143.646271,24.000204 144.781357,23.003159 145.916443,22.006113 
	C146.260590,22.385185 146.604721,22.764257 146.948868,23.143330 
	C145.092682,25.110106 143.236496,27.076883 141.380325,29.043659 
	C141.003723,28.762629 140.627136,28.481598 140.250534,28.200567 
	C140.845032,27.292023 141.439529,26.383478 142.272614,25.236092 
z"/>
<path fill="#878787" opacity="1.000000" stroke="none" 
	d="
M138.680573,149.457428 
	C139.033569,149.908493 139.093536,150.087997 139.134308,150.550751 
	C136.171829,150.834000 133.228546,150.834000 130.285263,150.834000 
	C130.283264,150.284622 130.281250,149.735245 130.279251,149.185867 
	C132.982010,149.185867 135.684784,149.185867 138.680573,149.457428 
z"/>
<path fill="#878787" opacity="1.000000" stroke="none" 
	d="
M168.342651,150.910645 
	C167.920151,150.529388 167.846115,150.228043 167.702942,149.715881 
	C170.796616,149.481232 173.862228,149.481232 176.927841,149.481232 
	C176.920837,149.976379 176.913818,150.471542 176.906815,150.966690 
	C174.200638,150.966690 171.494461,150.966690 168.342651,150.910645 
z"/>
<path fill="#0F0F0F" opacity="1.000000" stroke="none" 
	d="
M127.045227,14.320818 
	C128.295792,12.196968 129.845856,10.014516 131.395905,7.832064 
	C131.948547,8.324844 132.501190,8.817625 133.053833,9.310406 
	C131.150803,10.961009 129.247757,12.611613 127.045227,14.320818 
z"/>
<path fill="#121212" opacity="1.000000" stroke="none" 
	d="
M61.992321,191.994064 
	C63.481209,189.952621 64.970100,187.911179 66.458984,185.869736 
	C66.993172,186.355270 67.527359,186.840820 68.061554,187.326355 
	C66.272133,188.861954 64.482712,190.397568 62.346626,191.966583 
	C61.999958,192.000000 61.992321,191.994064 61.992321,191.994064 
z"/>
<path fill="#121212" opacity="1.000000" stroke="none" 
	d="
M48.994354,176.995728 
	C50.155022,175.301910 51.315689,173.608078 52.476357,171.914261 
	C52.979244,172.353912 53.482132,172.793579 53.985020,173.233231 
	C52.552589,174.465561 51.120159,175.697876 49.343853,176.965103 
	C48.999977,177.000000 48.994354,176.995728 48.994354,176.995728 
z"/>
<path fill="#0F0F0F" opacity="1.000000" stroke="none" 
	d="
M34.990414,162.992737 
	C36.430733,161.350555 37.871052,159.708374 39.655685,158.033096 
	C40.000000,158.000000 40.000458,158.000610 40.000462,158.000610 
	C38.564659,159.644485 37.128857,161.288361 35.346493,162.966110 
	C34.999931,163.000000 34.990414,162.992737 34.990414,162.992737 
z"/>
<path fill="#0F0F0F" opacity="1.000000" stroke="none" 
	d="
M115.999268,192.999954 
	C118.079170,195.968964 115.708221,196.865219 113.351082,197.965729 
	C112.999893,198.000000 112.986946,197.990082 112.986946,197.990082 
	C113.893524,196.523285 114.800102,195.056488 115.853912,193.294037 
	C116.001137,192.998398 116.000000,193.000000 115.999268,192.999954 
z"/>
<path fill="#0A0A0A" opacity="1.000000" stroke="none" 
	d="
M87.052338,64.106873 
	C86.568588,65.637680 86.084839,67.168488 85.601097,68.699295 
	C85.119026,68.575386 84.636955,68.451477 84.154892,68.327560 
	C84.408424,67.126991 84.661957,65.926414 84.958252,64.364059 
	C85.001015,64.002274 85.025993,63.994503 85.025993,63.994503 
	C85.434998,63.985718 85.844002,63.976933 86.610893,63.991947 
	C86.968781,64.015747 87.052338,64.106873 87.052338,64.106873 
z"/>
<path fill="#0F0F0F" opacity="1.000000" stroke="none" 
	d="
M61.171082,24.598286 
	C60.840286,24.914371 60.664886,24.950619 60.240036,24.887123 
	C60.754128,23.185431 61.517670,21.583485 62.281216,19.981539 
	C62.829338,20.305264 63.377464,20.628988 63.925591,20.952713 
	C63.059219,22.074625 62.192852,23.196537 61.171082,24.598286 
z"/>
<path fill="#080808" opacity="1.000000" stroke="none" 
	d="
M33.180817,93.295013 
	C32.554680,93.930435 31.876657,94.276031 31.198635,94.621620 
	C31.177719,94.188683 31.156801,93.755753 31.115597,93.071831 
	C31.351627,92.334908 31.607946,91.848961 31.864265,91.363022 
	C32.285824,91.910408 32.707378,92.457802 33.180817,93.295013 
z"/>
<path fill="#080808" opacity="1.000000" stroke="none" 
	d="
M66.689621,73.236069 
	C66.983261,72.207512 67.129189,71.447037 67.275124,70.686562 
	C67.630966,70.686714 67.986816,70.686867 68.342659,70.687027 
	C68.389366,71.721725 68.731552,72.878738 68.372742,73.745598 
	C68.155037,74.271576 66.853340,74.348877 66.038620,74.627747 
	C66.007278,74.503418 65.909454,74.337463 65.956543,74.262245 
	C66.125130,73.992935 66.342804,73.754356 66.689621,73.236069 
z"/>
<path fill="#121212" opacity="1.000000" stroke="none" 
	d="
M176.987015,221.665680 
	C176.287460,222.202240 175.576370,222.384781 174.507034,222.472427 
	C174.733643,221.396744 175.318481,220.415970 175.903320,219.435181 
	C176.260696,220.060669 176.618073,220.686172 176.987015,221.665680 
z"/>
<path fill="#121212" opacity="1.000000" stroke="none" 
	d="
M90.095383,60.881401 
	C89.302910,61.806370 88.476212,62.790821 87.350922,63.941071 
	C87.052338,64.106873 86.968781,64.015747 86.917465,63.978668 
	C86.285866,61.683365 86.964180,60.520432 89.825470,60.910511 
	C90.180130,60.872417 90.061165,60.940876 90.095383,60.881401 
z"/>
<path fill="#0A0A0A" opacity="1.000000" stroke="none" 
	d="
M96.808258,90.889931 
	C96.065254,91.282234 95.391182,91.376968 94.717102,91.471695 
	C94.917053,90.888535 95.117004,90.305382 95.316956,89.722221 
	C95.837029,90.012260 96.357109,90.302307 96.808258,90.889931 
z"/>
<path fill="#0F0F0F" opacity="1.000000" stroke="none" 
	d="
M25.996002,142.995850 
	C26.877571,141.930847 27.763117,140.869995 29.005795,139.660156 
	C29.362930,139.511169 29.399948,139.605850 29.448025,139.623108 
	C28.576487,140.731598 27.656872,141.822861 26.372721,142.960968 
	C26.008183,143.007812 25.999977,143.000000 25.996002,142.995850 
z"/>
<path fill="#080808" opacity="1.000000" stroke="none" 
	d="
M67.985657,80.021049 
	C66.727928,79.527718 65.470200,79.034393 64.212471,78.541061 
	C64.391289,78.164444 64.570099,77.787819 64.748917,77.411201 
	C65.804726,78.051567 66.860535,78.691933 67.959885,79.664528 
	C68.003441,79.996750 67.985657,80.021049 67.985657,80.021049 
z"/>
<path fill="#0F0F0F" opacity="1.000000" stroke="none" 
	d="
M39.999771,157.999695 
	C40.497524,157.032288 40.995510,156.065170 41.493496,155.098068 
	C41.912563,155.399338 42.331627,155.700592 42.750690,156.001862 
	C42.050179,156.644516 41.349663,157.287155 40.324806,157.965210 
	C40.000458,158.000610 40.000000,158.000000 39.999771,157.999695 
z"/>
<path fill="#121212" opacity="1.000000" stroke="none" 
	d="
M130.999695,207.999695 
	C131.500305,207.034546 132.001205,206.069702 132.502121,205.104858 
	C132.918488,205.406006 133.334869,205.707153 133.751251,206.008316 
	C133.050461,206.649170 132.349670,207.290024 131.324738,207.965744 
	C131.000610,208.000610 131.000000,208.000000 130.999695,207.999695 
z"/>
<path fill="#121212" opacity="1.000000" stroke="none" 
	d="
M207.362091,156.470520 
	C207.075089,157.045883 206.572144,157.400986 206.069199,157.756104 
	C205.878876,157.397263 205.688538,157.038422 205.498199,156.679596 
	C206.047516,156.536484 206.596832,156.393372 207.362091,156.470520 
z"/>
<path fill="#121212" opacity="1.000000" stroke="none" 
	d="
M56.534855,170.608810 
	C56.052383,170.178101 55.825459,169.639252 55.598534,169.100403 
	C56.000824,168.953659 56.403111,168.806915 56.805397,168.660187 
	C56.800396,169.273666 56.795399,169.887161 56.534855,170.608810 
z"/>
<path fill="#0A0A0A" opacity="1.000000" stroke="none" 
	d="
M88.641281,89.123474 
	C88.788956,89.622887 88.666634,90.098305 88.544319,90.573715 
	C88.178612,90.393211 87.812904,90.212708 87.447197,90.032196 
	C87.755234,89.721291 88.063263,89.410385 88.641281,89.123474 
z"/>
<path fill="#0F0F0F" opacity="1.000000" stroke="none" 
	d="
M135.537476,6.584642 
	C134.996124,6.402917 134.707184,6.112165 134.418228,5.821415 
	C134.950378,5.644082 135.482513,5.466748 136.014664,5.289413 
	C135.939743,5.684814 135.864822,6.080215 135.537476,6.584642 
z"/>
<path fill="#121212" opacity="1.000000" stroke="none" 
	d="
M81.253250,56.736065 
	C81.841545,57.098740 82.221283,57.684574 82.601021,58.270405 
	C82.316330,58.371891 81.807297,58.600967 81.781319,58.555305 
	C81.492668,58.047798 81.278778,57.497768 81.253250,56.736065 
z"/>
<path fill="#121212" opacity="1.000000" stroke="none" 
	d="
M205.999084,160.999084 
	C206.489655,160.291550 206.981125,159.584915 207.472610,158.878296 
	C207.754913,159.127441 208.037201,159.376602 208.319489,159.625763 
	C207.753754,160.065765 207.188019,160.505753 206.312057,160.973785 
	C206.001831,161.001831 206.000000,161.000000 205.999084,160.999084 
z"/>
<path fill="#0F0F0F" opacity="1.000000" stroke="none" 
	d="
M161.989624,34.992153 
	C162.295105,34.487652 162.600601,33.983147 162.906082,33.478645 
	C163.113663,33.658398 163.321243,33.838150 163.528824,34.017899 
	C163.209686,34.323502 162.890549,34.629105 162.285706,34.967354 
	C161.999985,35.000000 161.989624,34.992153 161.989624,34.992153 
z"/>
<path fill="#121212" opacity="1.000000" stroke="none" 
	d="
M11.999408,128.999390 
	C12.302084,128.490967 12.605351,127.983147 12.908620,127.475334 
	C13.116480,127.654694 13.324339,127.834053 13.532200,128.013412 
	C13.210193,128.317810 12.888185,128.622208 12.283698,128.963913 
	C12.001219,129.001221 12.000000,129.000000 11.999408,128.999390 
z"/>
<path fill="#0A0A0A" opacity="1.000000" stroke="none" 
	d="
M100.385239,88.956223 
	C100.788010,88.710335 101.188942,88.711945 101.587669,88.742447 
	C101.598732,88.743286 101.586090,89.053932 101.584511,89.220116 
	C101.184044,89.215981 100.783569,89.211853 100.385239,88.956223 
z"/>
<path fill="#121212" opacity="1.000000" stroke="none" 
	d="
M69.618622,183.544250 
	C70.061066,183.658142 70.331909,183.936569 70.581551,184.232849 
	C70.588150,184.240692 70.364105,184.442856 70.247620,184.554398 
	C69.979805,184.273315 69.711990,183.992233 69.618622,183.544250 
z"/>
<path fill="#080808" opacity="1.000000" stroke="none" 
	d="
M84.384613,81.458084 
	C83.942291,81.343658 83.671272,81.064987 83.421173,80.768661 
	C83.414818,80.761139 83.638336,80.559586 83.754646,80.448524 
	C84.022644,80.729530 84.290649,81.010536 84.384613,81.458084 
z"/>
<path fill="#080808" opacity="1.000000" stroke="none" 
	d="
M79.634773,77.359825 
	C79.273628,77.176422 78.980705,76.812897 78.906181,76.409065 
	C78.876793,76.249847 79.334534,76.000725 79.570450,75.792534 
	C79.643784,76.249542 79.717117,76.706551 79.634773,77.359825 
z"/>
<path fill="#0A0A0A" opacity="1.000000" stroke="none" 
	d="
M94.025360,106.802567 
	C93.836090,107.233597 93.647179,107.386734 93.458267,107.539871 
	C93.396217,106.814690 93.334160,106.089516 93.184708,105.037148 
	C93.406784,105.314865 93.716255,105.919769 94.025360,106.802567 
z"/>
<path fill="#080808" opacity="1.000000" stroke="none" 
	d="
M50.229450,91.387238 
	C49.819706,91.733231 49.509605,91.848427 49.199505,91.963623 
	C49.351887,91.450462 49.504272,90.937309 49.656654,90.424149 
	C49.880798,90.668243 50.104946,90.912338 50.229450,91.387238 
z"/>
<path fill="#080808" opacity="1.000000" stroke="none" 
	d="
M58.976051,71.768448 
	C58.521854,72.041084 58.086227,71.969048 57.323254,71.838654 
	C57.451065,71.200714 57.906227,70.621124 58.683723,70.020325 
	C59.006058,69.999115 59.059807,70.044571 59.059807,70.044571 
	C59.038082,70.504303 59.016354,70.964035 58.976051,71.768448 
z"/>
<path fill="#121212" opacity="1.000000" stroke="none" 
	d="
M148.543411,20.381752 
	C148.659485,19.937780 148.940582,19.664871 149.239441,19.413034 
	C149.247147,19.406544 149.449249,19.630749 149.560684,19.747360 
	C149.277390,20.016775 148.994080,20.286186 148.543411,20.381752 
z"/>
<path fill="#0F0F0F" opacity="1.000000" stroke="none" 
	d="
M65.541527,18.385849 
	C65.657616,17.940855 65.940933,17.670343 66.224258,17.399830 
	C66.335724,17.516642 66.447182,17.633453 66.558640,17.750267 
	C66.275352,18.020290 65.992058,18.290310 65.541527,18.385849 
z"/>
<path fill="#080808" opacity="1.000000" stroke="none" 
	d="
M52.396095,87.957977 
	C52.790382,87.717613 53.181335,87.719055 53.570198,87.748306 
	C53.580479,87.749084 53.575436,88.193504 53.565083,88.194054 
	C53.175133,88.214546 52.783710,88.207153 52.396095,87.957977 
z"/>
<path fill="#080808" opacity="1.000000" stroke="none" 
	d="
M71.404480,69.207214 
	C71.591690,68.840981 71.912125,68.640640 72.232559,68.440308 
	C72.000938,68.751236 71.769318,69.062172 71.404480,69.207214 
z"/>
<path fill="#0A0A0A" opacity="1.000000" stroke="none" 
	d="
M90.637741,78.090500 
	C90.364723,77.822296 90.252785,77.425674 90.196594,77.021301 
	C90.187073,76.952782 90.417206,76.850945 90.536606,76.764496 
	C90.630272,77.162827 90.723938,77.561150 90.637741,78.090500 
z"/>
<path fill="#080808" opacity="1.000000" stroke="none" 
	d="
M75.880371,69.272278 
	C75.780647,69.743156 75.639977,69.989792 75.499298,70.236420 
	C75.359039,69.989990 75.052536,69.674583 75.119156,69.513992 
	C75.209396,69.296501 75.585793,69.197731 75.880371,69.272278 
z"/>
<path fill="#E4E4E4" opacity="1.000000" stroke="none" 
	d="
M161.916092,155.670502 
	C161.051208,155.925797 160.186310,156.181076 159.321426,156.436356 
	C159.233963,156.166245 159.146500,155.896118 159.059036,155.626007 
	C159.749802,155.408813 160.440567,155.191620 161.472076,155.217590 
	C161.812805,155.460739 161.916092,155.670502 161.916092,155.670502 
z"/>
<path fill="#B4B4B4" opacity="1.000000" stroke="none" 
	d="
M162.182129,155.566467 
	C161.916092,155.670502 161.812805,155.460739 161.865417,155.356339 
	C162.537460,155.323380 163.156891,155.394806 165.168518,155.626801 
	C163.332443,155.515869 162.890305,155.489151 162.182129,155.566467 
z"/>
<path fill="#0A0A0A" opacity="1.000000" stroke="none" 
	d="
M84.740494,84.358414 
	C84.567429,84.046654 84.607414,83.694931 84.647400,83.343216 
	C84.891060,83.431107 85.134705,83.518997 85.378357,83.606888 
	C85.236748,83.844078 85.095154,84.081268 84.740494,84.358414 
z"/>
<path fill="#0F0F0F" opacity="1.000000" stroke="none" 
	d="
M111.008720,200.006607 
	C110.852211,200.451477 110.695709,200.896362 110.539207,201.341232 
	C110.262650,201.210892 109.986092,201.080536 109.709549,200.950180 
	C109.969177,200.642746 110.228806,200.335312 110.744217,200.013947 
	C111.000000,200.000000 111.008720,200.006607 111.008720,200.006607 
z"/>
<path fill="#0A0A0A" opacity="1.000000" stroke="none" 
	d="
M93.309578,101.839035 
	C93.586479,101.506271 93.833031,101.389183 94.079590,101.272079 
	C94.151085,101.509819 94.222588,101.747559 94.294083,101.985298 
	C93.955795,102.008430 93.617516,102.031563 93.309578,101.839035 
z"/>
<path fill="#0A0A0A" opacity="1.000000" stroke="none" 
	d="
M91.026154,99.906097 
	C90.930237,100.164162 90.497429,100.050827 90.281792,100.110367 
	C90.396515,99.589142 90.726875,99.008385 91.057243,98.427628 
	C91.078850,98.834427 91.100456,99.241226 91.026154,99.906097 
z"/>
<path fill="#0A0A0A" opacity="1.000000" stroke="none" 
	d="
M85.547424,89.247742 
	C85.193512,89.074005 84.987625,88.750481 84.781731,88.426964 
	C85.086304,88.650635 85.390877,88.874298 85.547424,89.247742 
z"/>
<path fill="#121212" opacity="1.000000" stroke="none" 
	d="
M84.997597,64.015045 
	C84.547264,63.888203 84.100357,63.748589 83.653442,63.608971 
	C84.029633,63.590679 84.405830,63.572384 84.904007,63.774300 
	C85.025993,63.994503 85.001015,64.002274 84.997597,64.015045 
z"/>
<path fill="#080808" opacity="1.000000" stroke="none" 
	d="
M50.927422,66.947182 
	C51.084465,66.529640 51.241505,66.112091 51.398544,65.694542 
	C51.412777,66.059555 51.427013,66.424576 51.218208,66.897476 
	C50.995171,67.005356 50.927422,66.947182 50.927422,66.947182 
z"/>
<path fill="#0F0F0F" opacity="1.000000" stroke="none" 
	d="
M84.245834,198.011383 
	C84.410156,197.903625 84.575386,197.956329 84.740616,198.009033 
	C84.575996,198.063309 84.411377,198.117584 84.245834,198.011383 
z"/>
<path fill="#080808" opacity="1.000000" stroke="none" 
	d="
M70.746567,65.355942 
	C70.992546,65.370575 71.126785,65.503487 71.261017,65.636406 
	C71.052284,65.582344 70.843544,65.528282 70.746567,65.355942 
z"/>
<path fill="#080808" opacity="1.000000" stroke="none" 
	d="
M55.603951,68.280983 
	C55.439934,68.152412 55.415703,67.930908 55.391476,67.709404 
	C55.508896,67.868950 55.626316,68.028503 55.603951,68.280983 
z"/>
<path fill="#080808" opacity="1.000000" stroke="none" 
	d="
M81.053787,66.923111 
	C81.173233,67.387131 81.292686,67.851158 81.412132,68.315178 
	C81.266953,68.055237 81.121773,67.795296 80.983147,67.266342 
	C80.989700,66.997322 81.053787,66.923111 81.053787,66.923111 
z"/>
<path fill="#0A0A0A" opacity="1.000000" stroke="none" 
	d="
M112.524590,89.736786 
	C112.386879,89.248192 112.419182,88.904823 112.451477,88.561447 
	C112.611885,88.746895 112.772285,88.932350 112.917839,89.302078 
	C112.902985,89.486359 112.694595,89.881996 112.524590,89.736786 
z"/>
<path fill="#FAFAFA" opacity="1.000000" stroke="none" 
	d="
M95.194107,71.164452 
	C94.995544,71.881889 94.631134,72.453377 94.295074,73.359604 
	C94.323418,73.694344 94.362282,73.756233 94.362282,73.756233 
	C94.281830,72.954643 94.201378,72.153061 94.409897,71.037758 
	C94.698868,70.724045 95.028259,71.018509 95.194107,71.164452 
z"/>
<path fill="#B4B4B4" opacity="1.000000" stroke="none" 
	d="
M97.895813,93.834656 
	C97.992882,94.106155 98.190475,94.470795 98.132355,94.669853 
	C97.721107,94.681801 97.367989,94.494690 97.014870,94.307579 
	C97.276169,94.059441 97.537460,93.811302 97.895813,93.834656 
z"/>
<path fill="#080808" opacity="1.000000" stroke="none" 
	d="
M60.359772,85.250351 
	C60.374371,85.007866 60.505508,84.875587 60.636646,84.743309 
	C60.583199,84.949059 60.529751,85.154816 60.359772,85.250351 
z"/>
<path fill="#080808" opacity="1.000000" stroke="none" 
	d="
M68.014374,79.985870 
	C68.442772,80.107124 68.860245,80.239243 69.277718,80.371368 
	C68.932632,80.385361 68.587540,80.399353 68.114059,80.217194 
	C67.985657,80.021049 68.003441,79.996750 68.014374,79.985870 
z"/>
<path fill="#0A0A0A" opacity="1.000000" stroke="none" 
	d="
M101.504219,120.931648 
	C101.290245,121.041428 100.768646,121.137276 100.414360,121.058662 
	C100.786636,120.895370 100.991615,120.906540 101.504219,120.931648 
z"/>
<path fill="#080808" opacity="1.000000" stroke="none" 
	d="
M74.531830,82.550461 
	C74.475815,82.583786 74.587845,82.517136 74.531830,82.550461 
z"/>
<path fill="#0A0A0A" opacity="1.000000" stroke="none" 
	d="
M100.392380,92.378174 
	C100.138687,92.290894 99.902451,92.134300 99.666214,91.977699 
	C99.855576,91.959610 100.044945,91.941513 100.385857,92.083908 
	C100.537407,92.244385 100.409836,92.308868 100.392380,92.378174 
z"/>
<path fill="#FAFAFA" opacity="1.000000" stroke="none" 
	d="
M68.776817,97.778999 
	C68.978722,97.527702 69.309395,97.403664 69.640060,97.279633 
	C69.646332,97.516685 69.652611,97.753746 69.410873,98.075920 
	C69.162857,98.161034 68.905586,97.906258 68.776817,97.778999 
z"/>
<path fill="#FAFAFA" opacity="1.000000" stroke="none" 
	d="
M48.689339,100.774338 
	C48.413467,100.772148 48.346142,100.556419 48.278816,100.340691 
	C48.485172,100.414055 48.691528,100.487427 48.689339,100.774338 
z"/>
<path fill="#FAFAFA" opacity="1.000000" stroke="none" 
	d="
M98.691101,106.369400 
	C98.674141,106.639046 98.484283,106.694778 98.294418,106.750519 
	C98.369019,106.552162 98.443619,106.353821 98.691101,106.369400 
z"/>
<path fill="#0F0F0F" opacity="1.000000" stroke="none" 
	d="
M112.013412,199.010178 
	C111.905830,199.329376 111.715996,199.588257 111.226318,199.896713 
	C111.008720,200.006607 111.000000,200.000000 110.996582,199.995483 
	C111.096901,199.670151 111.283974,199.409027 111.777191,199.103760 
	C112.000008,198.999893 112.013412,199.010178 112.013412,199.010178 
z"/>
<path fill="#0F0F0F" opacity="1.000000" stroke="none" 
	d="
M162.003876,35.005089 
	C161.900452,35.327614 161.712326,35.586292 161.227707,35.897644 
	C161.011993,36.009071 161.000000,35.999981 160.995316,35.993874 
	C161.097687,35.669792 161.286270,35.411289 161.772995,35.102207 
	C161.989624,34.992153 161.999985,35.000000 162.003876,35.005089 
z"/>
<path fill="#0F0F0F" opacity="1.000000" stroke="none" 
	d="
M113.004852,198.006393 
	C112.901428,198.329422 112.712891,198.587479 112.228790,198.898560 
	C112.013412,199.010178 112.000008,198.999893 111.994705,198.993011 
	C112.096512,198.668472 112.284912,198.410126 112.770782,198.100571 
	C112.986946,197.990082 112.999893,198.000000 113.004852,198.006393 
z"/>
<path fill="#0A0A0A" opacity="1.000000" stroke="none" 
	d="
M102.466270,106.451584 
	C102.523781,106.416504 102.408760,106.486664 102.466270,106.451584 
z"/>
<path fill="#121212" opacity="1.000000" stroke="none" 
	d="
M62.002903,192.003662 
	C61.910648,192.039185 61.815445,192.071030 61.856285,192.048477 
	C61.992321,191.994064 61.999958,192.000000 62.002903,192.003662 
z"/>
<path fill="#121212" opacity="1.000000" stroke="none" 
	d="
M80.545135,54.592846 
	C80.474396,54.644215 80.451958,54.445190 80.451958,54.445190 
	C80.451958,54.445190 80.615883,54.541477 80.545135,54.592846 
z"/>
<path fill="#080808" opacity="1.000000" stroke="none" 
	d="
M42.974728,69.565704 
	C42.645103,69.790474 42.289127,69.709602 41.933151,69.628731 
	C42.032455,69.403488 42.131760,69.178246 42.545609,68.802948 
	C42.889565,68.855286 42.918972,69.057678 42.974728,69.565704 
z"/>
<path fill="#080808" opacity="1.000000" stroke="none" 
	d="
M72.017891,80.976677 
	C72.132912,81.126373 72.247925,81.276077 72.362946,81.425774 
	C72.273918,81.380112 72.184883,81.334457 72.047531,81.144386 
	C71.999207,80.999969 72.017891,80.976677 72.017891,80.976677 
z"/>
<path fill="#121212" opacity="1.000000" stroke="none" 
	d="
M48.006271,178.004730 
	C47.911373,178.036682 47.816479,178.068634 47.860779,178.050293 
	C47.999973,178.000000 48.006268,178.004715 48.006271,178.004730 
z"/>
<path fill="#121212" opacity="1.000000" stroke="none" 
	d="
M47.997513,177.996643 
	C48.097340,177.671616 48.284683,177.411148 48.775723,177.103806 
	C48.994354,176.995728 48.999977,177.000000 49.002083,177.002747 
	C48.899101,177.325073 48.711174,177.584671 48.223335,177.894501 
	C48.006268,178.004715 47.999973,178.000000 47.997513,177.996643 
z"/>
<path fill="#080808" opacity="1.000000" stroke="none" 
	d="
M71.987526,81.009323 
	C71.863510,80.872559 71.751175,80.726433 71.638840,80.580299 
	C71.724724,80.625504 71.810608,80.670708 71.957184,80.846298 
	C72.017891,80.976677 71.999207,80.999969 71.987526,81.009323 
z"/>
<path fill="#FAFAFA" opacity="1.000000" stroke="none" 
	d="
M94.349960,73.701591 
	C93.984581,73.605209 93.592674,73.501579 93.200760,73.397949 
	C93.488632,73.324921 93.776505,73.251884 94.213333,73.467537 
	C94.362282,73.756233 94.323418,73.694344 94.349960,73.701591 
z"/>
<path fill="#080808" opacity="1.000000" stroke="none" 
	d="
M80.952141,67.028839 
	C80.814278,66.891975 80.713974,66.723602 80.613678,66.555229 
	C80.710533,66.593185 80.807381,66.631142 80.979012,66.796104 
	C81.053787,66.923111 80.989700,66.997322 80.952141,67.028839 
z"/>
<path fill="#0F0F0F" opacity="1.000000" stroke="none" 
	d="
M34.005730,164.004333 
	C33.911495,164.036667 33.817257,164.069016 33.861511,164.050674 
	C34.000000,164.000000 34.005730,164.004333 34.005730,164.004333 
z"/>
<path fill="#0F0F0F" opacity="1.000000" stroke="none" 
	d="
M35.003502,163.004639 
	C34.899109,163.327118 34.709782,163.585266 34.222408,163.894043 
	C34.005730,164.004333 34.000000,164.000000 33.997726,163.996948 
	C34.098206,163.673172 34.285019,163.412735 34.773155,163.102676 
	C34.990414,162.992737 34.999931,163.000000 35.003502,163.004639 
z"/>
<path fill="#080808" opacity="1.000000" stroke="none" 
	d="
M51.024376,67.039124 
	C50.925598,67.080521 50.797619,67.088158 50.798531,67.021484 
	C50.927422,66.947182 50.995171,67.005356 51.024376,67.039124 
z"/>
<path fill="#080808" opacity="1.000000" stroke="none" 
	d="
M58.982765,69.972717 
	C59.076889,69.931801 59.194302,69.917282 59.185760,69.973663 
	C59.059807,70.044571 59.006058,69.999115 58.982765,69.972717 
z"/>
<path fill="#050505" opacity="1.000000" stroke="none" 
	d="
M156.154419,127.791252 
	C164.791367,130.560959 173.018082,133.284256 181.030411,135.936584 
	C153.556580,135.936584 125.733643,135.936584 97.910698,135.936584 
	C112.950417,133.950699 126.000854,127.269646 138.054092,118.147240 
	C142.956207,124.505966 149.348511,126.128784 156.154419,127.791252 
z"/>
<path fill="#050505" opacity="1.000000" stroke="none" 
	d="
M25.134914,95.569397 
	C24.911991,95.648254 24.462315,95.342033 24.176800,94.764694 
	C24.530027,94.723824 24.719095,94.954063 25.134914,95.569397 
z"/>
<path fill="#050505" opacity="1.000000" stroke="none" 
	d="
M69.688019,58.988190 
	C69.904091,59.261200 69.743637,59.527618 69.298691,59.866245 
	C69.195534,59.669033 69.294632,59.350079 69.688019,58.988190 
z"/>
<path fill="#6F6F6F" opacity="1.000000" stroke="none" 
	d="
M168.028809,49.018814 
	C167.852158,49.430660 167.689499,49.863739 167.526840,50.296818 
	C167.274475,50.152000 167.022095,50.007183 166.769730,49.862366 
	C167.040955,49.579384 167.312180,49.296402 167.831329,49.044483 
	C168.079269,49.075542 168.042816,49.040047 168.028809,49.018814 
z"/>
</svg>